<svg width="300" height="361" viewBox="0 0 300 361" fill="none" xmlns="http://www.w3.org/2000/svg">
<rect width="300" height="361" rx="24" fill="#D35CDE"/>
<path opacity="0.35" d="M67.392 141.536C59.968 141.536 53.3547 139.701 47.552 136.032C41.7493 132.363 37.184 127.072 33.856 120.16C30.6133 113.163 28.992 104.843 28.992 95.2C28.992 85.5573 30.6133 77.28 33.856 70.368C37.184 63.3707 41.7493 58.0373 47.552 54.368C53.3547 50.6987 59.968 48.864 67.392 48.864C74.816 48.864 81.4293 50.6987 87.232 54.368C93.0347 58.0373 97.5573 63.3707 100.8 70.368C104.128 77.28 105.792 85.5573 105.792 95.2C105.792 104.843 104.128 113.163 100.8 120.16C97.5573 127.072 93.0347 132.363 87.232 136.032C81.4293 139.701 74.816 141.536 67.392 141.536ZM67.392 124C72.8533 124 77.12 121.653 80.192 116.96C83.3493 112.267 84.928 105.013 84.928 95.2C84.928 85.3867 83.3493 78.1333 80.192 73.44C77.12 68.7467 72.8533 66.4 67.392 66.4C62.016 66.4 57.7493 68.7467 54.592 73.44C51.52 78.1333 49.984 85.3867 49.984 95.2C49.984 105.013 51.52 112.267 54.592 116.96C57.7493 121.653 62.016 124 67.392 124ZM156.473 86.88C164.324 88.16 170.34 91.104 174.521 95.712C178.702 100.235 180.793 105.867 180.793 112.608C180.793 117.813 179.428 122.635 176.697 127.072C173.966 131.424 169.785 134.923 164.153 137.568C158.606 140.213 151.78 141.536 143.673 141.536C137.358 141.536 131.129 140.725 124.985 139.104C118.926 137.397 113.764 135.008 109.497 131.936L117.561 116.064C120.974 118.624 124.9 120.629 129.337 122.08C133.86 123.445 138.468 124.128 143.161 124.128C148.366 124.128 152.462 123.147 155.449 121.184C158.436 119.136 159.929 116.277 159.929 112.608C159.929 105.269 154.34 101.6 143.161 101.6H133.689V87.904L152.121 67.04H113.977V50.4H176.697V63.84L156.473 86.88Z" fill="white"/>
<path d="M36.752 233.128C35.632 233.128 34.6187 232.883 33.712 232.392C32.816 231.891 32.112 231.208 31.6 230.344C31.088 229.469 30.832 228.488 30.832 227.4C30.832 226.312 31.088 225.336 31.6 224.472C32.112 223.597 32.8213 222.915 33.728 222.424C34.6347 221.923 35.648 221.672 36.768 221.672C37.6427 221.672 38.4427 221.821 39.168 222.12C39.8933 222.408 40.512 222.84 41.024 223.416L39.984 224.424C39.1413 223.539 38.0907 223.096 36.832 223.096C36 223.096 35.248 223.283 34.576 223.656C33.904 224.029 33.376 224.547 32.992 225.208C32.6187 225.859 32.432 226.589 32.432 227.4C32.432 228.211 32.6187 228.947 32.992 229.608C33.376 230.259 33.904 230.771 34.576 231.144C35.248 231.517 36 231.704 36.832 231.704C38.08 231.704 39.1307 231.256 39.984 230.36L41.024 231.368C40.512 231.944 39.888 232.381 39.152 232.68C38.4267 232.979 37.6267 233.128 36.752 233.128ZM46.245 233.096C45.4023 233.096 44.645 232.909 43.973 232.536C43.301 232.163 42.773 231.651 42.389 231C42.0157 230.339 41.829 229.592 41.829 228.76C41.829 227.928 42.0157 227.187 42.389 226.536C42.773 225.875 43.301 225.363 43.973 225C44.645 224.627 45.4023 224.44 46.245 224.44C47.0877 224.44 47.8397 224.627 48.501 225C49.173 225.363 49.6957 225.875 50.069 226.536C50.453 227.187 50.645 227.928 50.645 228.76C50.645 229.592 50.453 230.339 50.069 231C49.6957 231.651 49.173 232.163 48.501 232.536C47.8397 232.909 47.0877 233.096 46.245 233.096ZM46.245 231.752C46.789 231.752 47.2743 231.629 47.701 231.384C48.1383 231.128 48.4797 230.776 48.725 230.328C48.9703 229.869 49.093 229.347 49.093 228.76C49.093 228.173 48.9703 227.656 48.725 227.208C48.4797 226.749 48.1383 226.397 47.701 226.152C47.2743 225.907 46.789 225.784 46.245 225.784C45.701 225.784 45.2103 225.907 44.773 226.152C44.3463 226.397 44.005 226.749 43.749 227.208C43.5037 227.656 43.381 228.173 43.381 228.76C43.381 229.347 43.5037 229.869 43.749 230.328C44.005 230.776 44.3463 231.128 44.773 231.384C45.2103 231.629 45.701 231.752 46.245 231.752ZM57.183 224.808C57.9723 224.808 58.6763 224.984 59.295 225.336C59.9137 225.688 60.3937 226.179 60.735 226.808C61.087 227.427 61.263 228.136 61.263 228.936C61.263 229.757 61.0763 230.488 60.703 231.128C60.3403 231.757 59.823 232.248 59.151 232.6C58.4897 232.952 57.7323 233.128 56.879 233.128C55.439 233.128 54.3243 232.637 53.535 231.656C52.7563 230.664 52.367 229.272 52.367 227.48C52.367 225.741 52.7243 224.381 53.439 223.4C54.1537 222.408 55.247 221.752 56.719 221.432L60.591 220.568L60.815 221.976L57.247 222.744C56.1377 222.989 55.311 223.405 54.767 223.992C54.223 224.579 53.9137 225.421 53.839 226.52C54.2017 225.976 54.671 225.555 55.247 225.256C55.823 224.957 56.4683 224.808 57.183 224.808ZM56.911 231.848C57.455 231.848 57.935 231.725 58.351 231.48C58.7777 231.235 59.1083 230.899 59.343 230.472C59.5777 230.035 59.695 229.539 59.695 228.984C59.695 228.141 59.439 227.464 58.927 226.952C58.415 226.44 57.743 226.184 56.911 226.184C56.079 226.184 55.4017 226.44 54.879 226.952C54.367 227.464 54.111 228.141 54.111 228.984C54.111 229.539 54.2283 230.035 54.463 230.472C54.7083 230.899 55.0443 231.235 55.471 231.48C55.8977 231.725 56.3777 231.848 56.911 231.848ZM71.1208 228.808C71.1208 228.925 71.1101 229.08 71.0888 229.272H64.2088C64.3048 230.019 64.6301 230.621 65.1848 231.08C65.7501 231.528 66.4488 231.752 67.2808 231.752C68.2941 231.752 69.1101 231.411 69.7288 230.728L70.5768 231.72C70.1928 232.168 69.7128 232.509 69.1368 232.744C68.5714 232.979 67.9368 233.096 67.2328 233.096C66.3368 233.096 65.5421 232.915 64.8488 232.552C64.1554 232.179 63.6168 231.661 63.2328 231C62.8594 230.339 62.6728 229.592 62.6728 228.76C62.6728 227.939 62.8541 227.197 63.2168 226.536C63.5901 225.875 64.0968 225.363 64.7368 225C65.3874 224.627 66.1181 224.44 66.9288 224.44C67.7394 224.44 68.4594 224.627 69.0888 225C69.7288 225.363 70.2248 225.875 70.5768 226.536C70.9394 227.197 71.1208 227.955 71.1208 228.808ZM66.9288 225.736C66.1928 225.736 65.5741 225.96 65.0728 226.408C64.5821 226.856 64.2941 227.443 64.2088 228.168H69.6488C69.5634 227.453 69.2701 226.872 68.7688 226.424C68.2781 225.965 67.6648 225.736 66.9288 225.736ZM77.9996 224.44C78.821 224.44 79.557 224.621 80.2076 224.984C80.8583 225.347 81.365 225.853 81.7276 226.504C82.101 227.155 82.2876 227.907 82.2876 228.76C82.2876 229.613 82.101 230.371 81.7276 231.032C81.365 231.683 80.8583 232.189 80.2076 232.552C79.557 232.915 78.821 233.096 77.9996 233.096C77.3916 233.096 76.8316 232.979 76.3196 232.744C75.8183 232.509 75.3916 232.168 75.0396 231.72V236.104H73.5036V224.52H74.9756V225.864C75.317 225.395 75.749 225.043 76.2716 224.808C76.7943 224.563 77.3703 224.44 77.9996 224.44ZM77.8716 231.752C78.4156 231.752 78.901 231.629 79.3276 231.384C79.765 231.128 80.1063 230.776 80.3516 230.328C80.6076 229.869 80.7356 229.347 80.7356 228.76C80.7356 228.173 80.6076 227.656 80.3516 227.208C80.1063 226.749 79.765 226.397 79.3276 226.152C78.901 225.907 78.4156 225.784 77.8716 225.784C77.3383 225.784 76.853 225.912 76.4156 226.168C75.989 226.413 75.6476 226.76 75.3916 227.208C75.1463 227.656 75.0236 228.173 75.0236 228.76C75.0236 229.347 75.1463 229.869 75.3916 230.328C75.637 230.776 75.9783 231.128 76.4156 231.384C76.853 231.629 77.3383 231.752 77.8716 231.752ZM92.1833 228.808C92.1833 228.925 92.1726 229.08 92.1513 229.272H85.2713C85.3673 230.019 85.6926 230.621 86.2473 231.08C86.8126 231.528 87.5113 231.752 88.3433 231.752C89.3566 231.752 90.1726 231.411 90.7913 230.728L91.6393 231.72C91.2553 232.168 90.7753 232.509 90.1993 232.744C89.6339 232.979 88.9993 233.096 88.2953 233.096C87.3993 233.096 86.6046 232.915 85.9113 232.552C85.2179 232.179 84.6793 231.661 84.2953 231C83.9219 230.339 83.7353 229.592 83.7353 228.76C83.7353 227.939 83.9166 227.197 84.2793 226.536C84.6526 225.875 85.1593 225.363 85.7993 225C86.4499 224.627 87.1806 224.44 87.9913 224.44C88.8019 224.44 89.5219 224.627 90.1513 225C90.7913 225.363 91.2873 225.875 91.6393 226.536C92.0019 227.197 92.1833 227.955 92.1833 228.808ZM87.9913 225.736C87.2553 225.736 86.6366 225.96 86.1353 226.408C85.6446 226.856 85.3566 227.443 85.2713 228.168H90.7113C90.6259 227.453 90.3326 226.872 89.8313 226.424C89.3406 225.965 88.7273 225.736 87.9913 225.736ZM104.342 224.52V233H102.95V226.808L99.7821 232.04H99.1101L95.9741 226.792V233H94.5661V224.52H96.1501L99.4781 230.248L102.902 224.52H104.342ZM120.253 231.656V234.968H118.813V233H111.725V234.968H110.269V231.656H110.717C111.261 231.624 111.634 231.24 111.837 230.504C112.039 229.768 112.178 228.728 112.253 227.384L112.381 224.52H118.957V231.656H120.253ZM113.661 227.496C113.618 228.563 113.527 229.448 113.389 230.152C113.261 230.845 113.021 231.347 112.669 231.656H117.421V225.864H113.741L113.661 227.496ZM129.534 224.52V233H127.998V225.864H124.35L124.254 227.752C124.2 228.893 124.099 229.848 123.95 230.616C123.8 231.373 123.555 231.981 123.214 232.44C122.872 232.899 122.398 233.128 121.79 233.128C121.512 233.128 121.198 233.08 120.846 232.984L120.942 231.688C121.08 231.72 121.208 231.736 121.326 231.736C121.752 231.736 122.072 231.549 122.286 231.176C122.499 230.803 122.638 230.36 122.702 229.848C122.766 229.336 122.824 228.605 122.878 227.656L123.022 224.52H129.534ZM139.304 224.52V233H137.928V230.312H135.464H135.288L133.432 233H131.784L133.848 230.104C133.208 229.912 132.717 229.597 132.376 229.16C132.034 228.712 131.864 228.157 131.864 227.496C131.864 226.525 132.194 225.789 132.856 225.288C133.517 224.776 134.429 224.52 135.592 224.52H139.304ZM133.432 227.544C133.432 228.109 133.608 228.531 133.96 228.808C134.322 229.075 134.861 229.208 135.576 229.208H137.928V225.864H135.64C134.168 225.864 133.432 226.424 133.432 227.544ZM146.597 224.52H148.133V228.12H152.965V224.52H154.501V233H152.965V229.448H148.133V233H146.597V224.52ZM165.152 228.808C165.152 228.925 165.141 229.08 165.12 229.272H158.24C158.336 230.019 158.661 230.621 159.216 231.08C159.781 231.528 160.48 231.752 161.312 231.752C162.325 231.752 163.141 231.411 163.76 230.728L164.608 231.72C164.224 232.168 163.744 232.509 163.168 232.744C162.603 232.979 161.968 233.096 161.264 233.096C160.368 233.096 159.573 232.915 158.88 232.552C158.187 232.179 157.648 231.661 157.264 231C156.891 230.339 156.704 229.592 156.704 228.76C156.704 227.939 156.885 227.197 157.248 226.536C157.621 225.875 158.128 225.363 158.768 225C159.419 224.627 160.149 224.44 160.96 224.44C161.771 224.44 162.491 224.627 163.12 225C163.76 225.363 164.256 225.875 164.608 226.536C164.971 227.197 165.152 227.955 165.152 228.808ZM160.96 225.736C160.224 225.736 159.605 225.96 159.104 226.408C158.613 226.856 158.325 227.443 158.24 228.168H163.68C163.595 227.453 163.301 226.872 162.8 226.424C162.309 225.965 161.696 225.736 160.96 225.736ZM173.775 225.864H169.071V233H167.535V224.52H173.775V225.864ZM178.604 233.096C177.762 233.096 177.004 232.909 176.332 232.536C175.66 232.163 175.132 231.651 174.748 231C174.375 230.339 174.188 229.592 174.188 228.76C174.188 227.928 174.375 227.187 174.748 226.536C175.132 225.875 175.66 225.363 176.332 225C177.004 224.627 177.762 224.44 178.604 224.44C179.447 224.44 180.199 224.627 180.86 225C181.532 225.363 182.055 225.875 182.428 226.536C182.812 227.187 183.004 227.928 183.004 228.76C183.004 229.592 182.812 230.339 182.428 231C182.055 231.651 181.532 232.163 180.86 232.536C180.199 232.909 179.447 233.096 178.604 233.096ZM178.604 231.752C179.148 231.752 179.634 231.629 180.06 231.384C180.498 231.128 180.839 230.776 181.084 230.328C181.33 229.869 181.452 229.347 181.452 228.76C181.452 228.173 181.33 227.656 181.084 227.208C180.839 226.749 180.498 226.397 180.06 226.152C179.634 225.907 179.148 225.784 178.604 225.784C178.06 225.784 177.57 225.907 177.132 226.152C176.706 226.397 176.364 226.749 176.108 227.208C175.863 227.656 175.74 228.173 175.74 228.76C175.74 229.347 175.863 229.869 176.108 230.328C176.364 230.776 176.706 231.128 177.132 231.384C177.57 231.629 178.06 231.752 178.604 231.752ZM39.056 248.52L34.944 257.848C34.5813 258.712 34.1547 259.32 33.664 259.672C33.184 260.024 32.6027 260.2 31.92 260.2C31.504 260.2 31.0987 260.131 30.704 259.992C30.32 259.864 30 259.672 29.744 259.416L30.4 258.264C30.8373 258.68 31.344 258.888 31.92 258.888C32.2933 258.888 32.6027 258.787 32.848 258.584C33.104 258.392 33.3333 258.056 33.536 257.576L33.808 256.984L30.064 248.52H31.664L34.624 255.304L37.552 248.52H39.056ZM40.6286 248.52H42.1646V252.12H46.9966V248.52H48.5326V257H46.9966V253.448H42.1646V257H40.6286V248.52ZM51.5193 248.52H53.0553V254.696L58.2552 248.52H59.6473V257H58.1112V250.824L52.9273 257H51.5193V248.52ZM65.9246 253.416H64.1646V257H62.6286V248.52H64.1646V252.104H65.9566L68.7086 248.52H70.3566L67.1406 252.6L70.5806 257H68.7726L65.9246 253.416ZM75.0589 248.44C76.2322 248.44 77.1282 248.728 77.7469 249.304C78.3762 249.88 78.6909 250.739 78.6909 251.88V257H77.2349V255.88C76.9789 256.275 76.6109 256.579 76.1309 256.792C75.6615 256.995 75.1015 257.096 74.4509 257.096C73.5015 257.096 72.7389 256.867 72.1629 256.408C71.5975 255.949 71.3149 255.347 71.3149 254.6C71.3149 253.853 71.5869 253.256 72.1309 252.808C72.6749 252.349 73.5389 252.12 74.7229 252.12H77.1549V251.816C77.1549 251.155 76.9629 250.648 76.5789 250.296C76.1949 249.944 75.6295 249.768 74.8829 249.768C74.3815 249.768 73.8909 249.853 73.4109 250.024C72.9309 250.184 72.5255 250.403 72.1949 250.68L71.5549 249.528C71.9922 249.176 72.5149 248.909 73.1229 248.728C73.7309 248.536 74.3762 248.44 75.0589 248.44ZM74.7069 255.912C75.2935 255.912 75.8002 255.784 76.2269 255.528C76.6535 255.261 76.9629 254.888 77.1549 254.408V253.224H74.7869C73.4855 253.224 72.8349 253.661 72.8349 254.536C72.8349 254.963 73.0002 255.299 73.3309 255.544C73.6615 255.789 74.1202 255.912 74.7069 255.912ZM88.7368 248.52V257H87.2008V249.864H83.5528L83.4568 251.752C83.4034 252.893 83.3021 253.848 83.1528 254.616C83.0034 255.373 82.7581 255.981 82.4168 256.44C82.0754 256.899 81.6008 257.128 80.9928 257.128C80.7154 257.128 80.4008 257.08 80.0488 256.984L80.1448 255.688C80.2834 255.72 80.4114 255.736 80.5288 255.736C80.9554 255.736 81.2754 255.549 81.4888 255.176C81.7021 254.803 81.8408 254.36 81.9048 253.848C81.9688 253.336 82.0274 252.605 82.0807 251.656L82.2248 248.52H88.7368ZM95.6268 251.4C96.7041 251.411 97.5254 251.656 98.0908 252.136C98.6561 252.616 98.9388 253.293 98.9388 254.168C98.9388 255.085 98.6294 255.795 98.0108 256.296C97.4028 256.787 96.5281 257.027 95.3868 257.016L91.7068 257V248.52H93.2428V251.384L95.6268 251.4ZM95.2588 255.848C95.9521 255.859 96.4748 255.72 96.8268 255.432C97.1894 255.144 97.3708 254.717 97.3708 254.152C97.3708 253.597 97.1948 253.192 96.8428 252.936C96.5014 252.68 95.9734 252.547 95.2588 252.536L93.2428 252.504V255.832L95.2588 255.848ZM100.91 248.52H102.446V252.12H107.278V248.52H108.814V257H107.278V253.448H102.446V257H100.91V248.52ZM115.433 257.096C114.59 257.096 113.833 256.909 113.161 256.536C112.489 256.163 111.961 255.651 111.577 255C111.203 254.339 111.017 253.592 111.017 252.76C111.017 251.928 111.203 251.187 111.577 250.536C111.961 249.875 112.489 249.363 113.161 249C113.833 248.627 114.59 248.44 115.433 248.44C116.275 248.44 117.027 248.627 117.689 249C118.361 249.363 118.883 249.875 119.257 250.536C119.641 251.187 119.833 251.928 119.833 252.76C119.833 253.592 119.641 254.339 119.257 255C118.883 255.651 118.361 256.163 117.689 256.536C117.027 256.909 116.275 257.096 115.433 257.096ZM115.433 255.752C115.977 255.752 116.462 255.629 116.889 255.384C117.326 255.128 117.667 254.776 117.913 254.328C118.158 253.869 118.281 253.347 118.281 252.76C118.281 252.173 118.158 251.656 117.913 251.208C117.667 250.749 117.326 250.397 116.889 250.152C116.462 249.907 115.977 249.784 115.433 249.784C114.889 249.784 114.398 249.907 113.961 250.152C113.534 250.397 113.193 250.749 112.937 251.208C112.691 251.656 112.569 252.173 112.569 252.76C112.569 253.347 112.691 253.869 112.937 254.328C113.193 254.776 113.534 255.128 113.961 255.384C114.398 255.629 114.889 255.752 115.433 255.752ZM129.715 252.808C129.715 252.925 129.704 253.08 129.683 253.272H122.803C122.899 254.019 123.224 254.621 123.779 255.08C124.344 255.528 125.043 255.752 125.875 255.752C126.888 255.752 127.704 255.411 128.323 254.728L129.171 255.72C128.787 256.168 128.307 256.509 127.731 256.744C127.165 256.979 126.531 257.096 125.827 257.096C124.931 257.096 124.136 256.915 123.443 256.552C122.749 256.179 122.211 255.661 121.827 255C121.453 254.339 121.267 253.592 121.267 252.76C121.267 251.939 121.448 251.197 121.811 250.536C122.184 249.875 122.691 249.363 123.331 249C123.981 248.627 124.712 248.44 125.523 248.44C126.333 248.44 127.053 248.627 127.683 249C128.323 249.363 128.819 249.875 129.171 250.536C129.533 251.197 129.715 251.955 129.715 252.808ZM125.523 249.736C124.787 249.736 124.168 249.96 123.667 250.408C123.176 250.856 122.888 251.443 122.803 252.168H128.243C128.157 251.453 127.864 250.872 127.363 250.424C126.872 249.965 126.259 249.736 125.523 249.736ZM144.026 252.808C144.026 252.925 144.016 253.08 143.994 253.272H137.114C137.21 254.019 137.536 254.621 138.09 255.08C138.656 255.528 139.354 255.752 140.186 255.752C141.2 255.752 142.016 255.411 142.634 254.728L143.482 255.72C143.098 256.168 142.618 256.509 142.042 256.744C141.477 256.979 140.842 257.096 140.138 257.096C139.242 257.096 138.448 256.915 137.754 256.552C137.061 256.179 136.522 255.661 136.138 255C135.765 254.339 135.578 253.592 135.578 252.76C135.578 251.939 135.76 251.197 136.122 250.536C136.496 249.875 137.002 249.363 137.642 249C138.293 248.627 139.024 248.44 139.834 248.44C140.645 248.44 141.365 248.627 141.994 249C142.634 249.363 143.13 249.875 143.482 250.536C143.845 251.197 144.026 251.955 144.026 252.808ZM139.834 249.736C139.098 249.736 138.48 249.96 137.978 250.408C137.488 250.856 137.2 251.443 137.114 252.168H142.554C142.469 251.453 142.176 250.872 141.674 250.424C141.184 249.965 140.57 249.736 139.834 249.736ZM150.687 248.44C151.764 248.44 152.618 248.755 153.247 249.384C153.887 250.003 154.207 250.915 154.207 252.12V257H152.671V252.296C152.671 251.475 152.474 250.856 152.079 250.44C151.684 250.024 151.119 249.816 150.383 249.816C149.551 249.816 148.895 250.061 148.415 250.552C147.935 251.032 147.695 251.725 147.695 252.632V257H146.159V248.52H147.631V249.8C147.94 249.363 148.356 249.027 148.879 248.792C149.412 248.557 150.015 248.44 150.687 248.44ZM155.962 260.2C155.588 260.2 155.242 260.157 154.922 260.072C154.602 259.987 154.335 259.859 154.122 259.688L154.618 258.504C154.938 258.771 155.354 258.904 155.866 258.904C156.271 258.904 156.58 258.776 156.794 258.52C157.018 258.275 157.13 257.907 157.13 257.416V248.52H158.666V257.384C158.666 258.259 158.431 258.947 157.962 259.448C157.492 259.949 156.826 260.2 155.962 260.2ZM157.898 246.888C157.599 246.888 157.348 246.792 157.146 246.6C156.954 246.408 156.858 246.173 156.858 245.896C156.858 245.619 156.954 245.384 157.146 245.192C157.348 244.989 157.599 244.888 157.898 244.888C158.196 244.888 158.442 244.984 158.634 245.176C158.836 245.357 158.938 245.587 158.938 245.864C158.938 246.152 158.836 246.397 158.634 246.6C158.442 246.792 158.196 246.888 157.898 246.888ZM165.229 257.096C164.386 257.096 163.629 256.909 162.957 256.536C162.285 256.163 161.757 255.651 161.373 255C160.999 254.339 160.813 253.592 160.813 252.76C160.813 251.928 160.999 251.187 161.373 250.536C161.757 249.875 162.285 249.363 162.957 249C163.629 248.627 164.386 248.44 165.229 248.44C166.071 248.44 166.823 248.627 167.485 249C168.157 249.363 168.679 249.875 169.053 250.536C169.437 251.187 169.629 251.928 169.629 252.76C169.629 253.592 169.437 254.339 169.053 255C168.679 255.651 168.157 256.163 167.485 256.536C166.823 256.909 166.071 257.096 165.229 257.096ZM165.229 255.752C165.773 255.752 166.258 255.629 166.685 255.384C167.122 255.128 167.463 254.776 167.709 254.328C167.954 253.869 168.077 253.347 168.077 252.76C168.077 252.173 167.954 251.656 167.709 251.208C167.463 250.749 167.122 250.397 166.685 250.152C166.258 249.907 165.773 249.784 165.229 249.784C164.685 249.784 164.194 249.907 163.757 250.152C163.33 250.397 162.989 250.749 162.733 251.208C162.487 251.656 162.365 252.173 162.365 252.76C162.365 253.347 162.487 253.869 162.733 254.328C162.989 254.776 163.33 255.128 163.757 255.384C164.194 255.629 164.685 255.752 165.229 255.752ZM179.023 248.52L174.911 257.848C174.548 258.712 174.121 259.32 173.631 259.672C173.151 260.024 172.569 260.2 171.887 260.2C171.471 260.2 171.065 260.131 170.671 259.992C170.287 259.864 169.966 259.672 169.71 259.416L170.367 258.264C170.804 258.68 171.311 258.888 171.887 258.888C172.26 258.888 172.569 258.787 172.815 258.584C173.071 258.392 173.3 258.056 173.503 257.576L173.775 256.984L170.03 248.52H171.631L174.591 255.304L177.519 248.52H179.023ZM36.08 276.584C36.6453 276.733 37.0827 276.973 37.392 277.304C37.7013 277.635 37.856 278.045 37.856 278.536C37.856 279.037 37.6853 279.485 37.344 279.88C37.0027 280.264 36.528 280.568 35.92 280.792C35.3227 281.005 34.6507 281.112 33.904 281.112C33.2747 281.112 32.656 281.032 32.048 280.872C31.4507 280.701 30.9173 280.461 30.448 280.152L30.912 278.984C31.3173 279.24 31.7813 279.443 32.304 279.592C32.8267 279.731 33.3547 279.8 33.888 279.8C34.6133 279.8 35.1893 279.677 35.616 279.432C36.0533 279.176 36.272 278.835 36.272 278.408C36.272 278.013 36.096 277.709 35.744 277.496C35.4027 277.283 34.9173 277.176 34.288 277.176H32.736V276.072H34.176C34.752 276.072 35.2053 275.971 35.536 275.768C35.8667 275.565 36.032 275.288 36.032 274.936C36.032 274.552 35.8347 274.253 35.44 274.04C35.056 273.827 34.5333 273.72 33.872 273.72C33.0293 273.72 32.1387 273.939 31.2 274.376L30.784 273.192C31.8187 272.669 32.9013 272.408 34.032 272.408C34.7147 272.408 35.328 272.504 35.872 272.696C36.416 272.888 36.8427 273.16 37.152 273.512C37.4613 273.864 37.616 274.264 37.616 274.712C37.616 275.128 37.4773 275.501 37.2 275.832C36.9227 276.163 36.5493 276.413 36.08 276.584ZM43.2151 272.44C44.3885 272.44 45.2845 272.728 45.9031 273.304C46.5325 273.88 46.8471 274.739 46.8471 275.88V281H45.3911V279.88C45.1351 280.275 44.7671 280.579 44.2871 280.792C43.8178 280.995 43.2578 281.096 42.6071 281.096C41.6578 281.096 40.8951 280.867 40.3191 280.408C39.7538 279.949 39.4711 279.347 39.4711 278.6C39.4711 277.853 39.7431 277.256 40.2871 276.808C40.8311 276.349 41.6951 276.12 42.8791 276.12H45.3111V275.816C45.3111 275.155 45.1191 274.648 44.7351 274.296C44.3511 273.944 43.7858 273.768 43.0391 273.768C42.5378 273.768 42.0471 273.853 41.5671 274.024C41.0871 274.184 40.6818 274.403 40.3511 274.68L39.7111 273.528C40.1485 273.176 40.6711 272.909 41.2791 272.728C41.8871 272.536 42.5325 272.44 43.2151 272.44ZM42.8631 279.912C43.4498 279.912 43.9565 279.784 44.3831 279.528C44.8098 279.261 45.1191 278.888 45.3111 278.408V277.224H42.9431C41.6418 277.224 40.9911 277.661 40.9911 278.536C40.9911 278.963 41.1565 279.299 41.4871 279.544C41.8178 279.789 42.2765 279.912 42.8631 279.912ZM49.613 272.52H51.149V276.12H55.981V272.52H57.517V281H55.981V277.448H51.149V281H49.613V272.52ZM67.3036 272.52V281H65.9276V278.312H63.4636H63.2876L61.4316 281H59.7836L61.8476 278.104C61.2076 277.912 60.717 277.597 60.3756 277.16C60.0343 276.712 59.8636 276.157 59.8636 275.496C59.8636 274.525 60.1943 273.789 60.8556 273.288C61.517 272.776 62.429 272.52 63.5916 272.52H67.3036ZM61.4316 275.544C61.4316 276.109 61.6076 276.531 61.9596 276.808C62.3223 277.075 62.861 277.208 63.5756 277.208H65.9276V273.864H63.6396C62.1676 273.864 61.4316 274.424 61.4316 275.544ZM76.6205 273.864H73.5165V281H71.9805V273.864H68.8765V272.52H76.6205V273.864ZM78.1911 272.52H79.7271V278.696L84.9271 272.52H86.3191V281H84.7831V274.824L79.5991 281H78.1911V272.52ZM96.9645 276.808C96.9645 276.925 96.9538 277.08 96.9325 277.272H90.0525C90.1485 278.019 90.4738 278.621 91.0285 279.08C91.5938 279.528 92.2925 279.752 93.1245 279.752C94.1378 279.752 94.9538 279.411 95.5725 278.728L96.4205 279.72C96.0365 280.168 95.5565 280.509 94.9805 280.744C94.4152 280.979 93.7805 281.096 93.0765 281.096C92.1805 281.096 91.3858 280.915 90.6925 280.552C89.9992 280.179 89.4605 279.661 89.0765 279C88.7032 278.339 88.5165 277.592 88.5165 276.76C88.5165 275.939 88.6978 275.197 89.0605 274.536C89.4338 273.875 89.9405 273.363 90.5805 273C91.2312 272.627 91.9618 272.44 92.7725 272.44C93.5832 272.44 94.3032 272.627 94.9325 273C95.5725 273.363 96.0685 273.875 96.4205 274.536C96.7832 275.197 96.9645 275.955 96.9645 276.808ZM92.7725 273.736C92.0365 273.736 91.4178 273.96 90.9165 274.408C90.4258 274.856 90.1378 275.443 90.0525 276.168H95.4925C95.4072 275.453 95.1138 274.872 94.6125 274.424C94.1218 273.965 93.5085 273.736 92.7725 273.736ZM103.644 272.52H105.18V278.696L110.38 272.52H111.772V281H110.236V274.824L105.052 281H103.644V272.52ZM126.907 272.52V281H125.371V273.864H120.587V281H119.051V272.52H126.907ZM134.375 272.44C135.196 272.44 135.932 272.621 136.583 272.984C137.233 273.347 137.74 273.853 138.103 274.504C138.476 275.155 138.663 275.907 138.663 276.76C138.663 277.613 138.476 278.371 138.103 279.032C137.74 279.683 137.233 280.189 136.583 280.552C135.932 280.915 135.196 281.096 134.375 281.096C133.767 281.096 133.207 280.979 132.695 280.744C132.193 280.509 131.767 280.168 131.415 279.72V284.104H129.879V272.52H131.351V273.864C131.692 273.395 132.124 273.043 132.647 272.808C133.169 272.563 133.745 272.44 134.375 272.44ZM134.247 279.752C134.791 279.752 135.276 279.629 135.703 279.384C136.14 279.128 136.481 278.776 136.727 278.328C136.983 277.869 137.111 277.347 137.111 276.76C137.111 276.173 136.983 275.656 136.727 275.208C136.481 274.749 136.14 274.397 135.703 274.152C135.276 273.907 134.791 273.784 134.247 273.784C133.713 273.784 133.228 273.912 132.791 274.168C132.364 274.413 132.023 274.76 131.767 275.208C131.521 275.656 131.399 276.173 131.399 276.76C131.399 277.347 131.521 277.869 131.767 278.328C132.012 278.776 132.353 279.128 132.791 279.384C133.228 279.629 133.713 279.752 134.247 279.752ZM140.894 272.52H142.43V278.696L147.63 272.52H149.022V281H147.486V274.824L142.302 281H140.894V272.52ZM158.244 273.864H153.54V281H152.004V272.52H158.244V273.864ZM166.549 272.52V281H165.013V273.864H161.365L161.269 275.752C161.216 276.893 161.115 277.848 160.965 278.616C160.816 279.373 160.571 279.981 160.229 280.44C159.888 280.899 159.413 281.128 158.805 281.128C158.528 281.128 158.213 281.08 157.861 280.984L157.957 279.688C158.096 279.72 158.224 279.736 158.341 279.736C158.768 279.736 159.088 279.549 159.301 279.176C159.515 278.803 159.653 278.36 159.717 277.848C159.781 277.336 159.84 276.605 159.893 275.656L160.037 272.52H166.549ZM172.543 272.44C173.717 272.44 174.613 272.728 175.231 273.304C175.861 273.88 176.175 274.739 176.175 275.88V281H174.719V279.88C174.463 280.275 174.095 280.579 173.615 280.792C173.146 280.995 172.586 281.096 171.935 281.096C170.986 281.096 170.223 280.867 169.647 280.408C169.082 279.949 168.799 279.347 168.799 278.6C168.799 277.853 169.071 277.256 169.615 276.808C170.159 276.349 171.023 276.12 172.207 276.12H174.639V275.816C174.639 275.155 174.447 274.648 174.063 274.296C173.679 273.944 173.114 273.768 172.367 273.768C171.866 273.768 171.375 273.853 170.895 274.024C170.415 274.184 170.01 274.403 169.679 274.68L169.039 273.528C169.477 273.176 169.999 272.909 170.607 272.728C171.215 272.536 171.861 272.44 172.543 272.44ZM172.191 279.912C172.778 279.912 173.285 279.784 173.711 279.528C174.138 279.261 174.447 278.888 174.639 278.408V277.224H172.271C170.97 277.224 170.319 277.661 170.319 278.536C170.319 278.963 170.485 279.299 170.815 279.544C171.146 279.789 171.605 279.912 172.191 279.912ZM182.637 281.096C181.773 281.096 181 280.909 180.317 280.536C179.645 280.163 179.117 279.651 178.733 279C178.349 278.339 178.157 277.592 178.157 276.76C178.157 275.928 178.349 275.187 178.733 274.536C179.117 273.875 179.645 273.363 180.317 273C181 272.627 181.773 272.44 182.637 272.44C183.405 272.44 184.088 272.595 184.685 272.904C185.293 273.213 185.762 273.661 186.093 274.248L184.925 275C184.658 274.595 184.328 274.291 183.933 274.088C183.538 273.885 183.101 273.784 182.621 273.784C182.066 273.784 181.565 273.907 181.117 274.152C180.68 274.397 180.333 274.749 180.077 275.208C179.832 275.656 179.709 276.173 179.709 276.76C179.709 277.357 179.832 277.885 180.077 278.344C180.333 278.792 180.68 279.139 181.117 279.384C181.565 279.629 182.066 279.752 182.621 279.752C183.101 279.752 183.538 279.651 183.933 279.448C184.328 279.245 184.658 278.941 184.925 278.536L186.093 279.272C185.762 279.859 185.293 280.312 184.685 280.632C184.088 280.941 183.405 281.096 182.637 281.096ZM188.082 272.52H189.618V278.696L194.818 272.52H196.21V281H194.674V274.824L189.49 281H188.082V272.52ZM208.967 272.52V281H207.575V274.808L204.407 280.04H203.735L200.599 274.792V281H199.191V272.52H200.775L204.103 278.248L207.527 272.52H208.967ZM222.574 273.864H219.47V281H217.934V273.864H214.83V272.52H222.574V273.864ZM231.759 272.52L227.647 281.848C227.284 282.712 226.858 283.32 226.367 283.672C225.887 284.024 225.306 284.2 224.623 284.2C224.207 284.2 223.802 284.131 223.407 283.992C223.023 283.864 222.703 283.672 222.447 283.416L223.103 282.264C223.54 282.68 224.047 282.888 224.623 282.888C224.996 282.888 225.306 282.787 225.551 282.584C225.807 282.392 226.036 282.056 226.239 281.576L226.511 280.984L222.767 272.52H224.367L227.327 279.304L230.255 272.52H231.759ZM241.503 279.656V282.968H240.063V281H232.975V282.968H231.519V279.656H231.967C232.511 279.624 232.884 279.24 233.087 278.504C233.289 277.768 233.428 276.728 233.503 275.384L233.631 272.52H240.207V279.656H241.503ZM234.911 275.496C234.868 276.563 234.777 277.448 234.639 278.152C234.511 278.845 234.271 279.347 233.919 279.656H238.671V273.864H234.991L234.911 275.496ZM246.528 272.44C247.701 272.44 248.597 272.728 249.216 273.304C249.845 273.88 250.16 274.739 250.16 275.88V281H248.704V279.88C248.448 280.275 248.08 280.579 247.6 280.792C247.13 280.995 246.57 281.096 245.92 281.096C244.97 281.096 244.208 280.867 243.632 280.408C243.066 279.949 242.784 279.347 242.784 278.6C242.784 277.853 243.056 277.256 243.6 276.808C244.144 276.349 245.008 276.12 246.192 276.12H248.624V275.816C248.624 275.155 248.432 274.648 248.048 274.296C247.664 273.944 247.098 273.768 246.352 273.768C245.85 273.768 245.36 273.853 244.88 274.024C244.4 274.184 243.994 274.403 243.664 274.68L243.024 273.528C243.461 273.176 243.984 272.909 244.592 272.728C245.2 272.536 245.845 272.44 246.528 272.44ZM246.176 279.912C246.762 279.912 247.269 279.784 247.696 279.528C248.122 279.261 248.432 278.888 248.624 278.408V277.224H246.256C244.954 277.224 244.304 277.661 244.304 278.536C244.304 278.963 244.469 279.299 244.8 279.544C245.13 279.789 245.589 279.912 246.176 279.912ZM40.112 303.656V306.968H38.672V305H31.584V306.968H30.128V303.656H30.576C31.12 303.624 31.4933 303.24 31.696 302.504C31.8987 301.768 32.0373 300.728 32.112 299.384L32.24 296.52H38.816V303.656H40.112ZM33.52 299.496C33.4773 300.563 33.3867 301.448 33.248 302.152C33.12 302.845 32.88 303.347 32.528 303.656H37.28V297.864H33.6L33.52 299.496ZM49.777 300.808C49.777 300.925 49.7663 301.08 49.745 301.272H42.865C42.961 302.019 43.2863 302.621 43.841 303.08C44.4063 303.528 45.105 303.752 45.937 303.752C46.9503 303.752 47.7663 303.411 48.385 302.728L49.233 303.72C48.849 304.168 48.369 304.509 47.793 304.744C47.2277 304.979 46.593 305.096 45.889 305.096C44.993 305.096 44.1983 304.915 43.505 304.552C42.8117 304.179 42.273 303.661 41.889 303C41.5157 302.339 41.329 301.592 41.329 300.76C41.329 299.939 41.5103 299.197 41.873 298.536C42.2463 297.875 42.753 297.363 43.393 297C44.0437 296.627 44.7743 296.44 45.585 296.44C46.3957 296.44 47.1157 296.627 47.745 297C48.385 297.363 48.881 297.875 49.233 298.536C49.5957 299.197 49.777 299.955 49.777 300.808ZM45.585 297.736C44.849 297.736 44.2303 297.96 43.729 298.408C43.2383 298.856 42.9503 299.443 42.865 300.168H48.305C48.2197 299.453 47.9263 298.872 47.425 298.424C46.9343 297.965 46.321 297.736 45.585 297.736ZM58.1205 297.864H55.0165V305H53.4805V297.864H50.3765V296.52H58.1205V297.864ZM66.9801 300.808C66.9801 300.925 66.9695 301.08 66.9481 301.272H60.0681C60.1641 302.019 60.4895 302.621 61.0441 303.08C61.6095 303.528 62.3081 303.752 63.1401 303.752C64.1535 303.752 64.9695 303.411 65.5881 302.728L66.4361 303.72C66.0521 304.168 65.5721 304.509 64.9961 304.744C64.4308 304.979 63.7961 305.096 63.0921 305.096C62.1961 305.096 61.4015 304.915 60.7081 304.552C60.0148 304.179 59.4761 303.661 59.0921 303C58.7188 302.339 58.5321 301.592 58.5321 300.76C58.5321 299.939 58.7135 299.197 59.0761 298.536C59.4495 297.875 59.9561 297.363 60.5961 297C61.2468 296.627 61.9775 296.44 62.7881 296.44C63.5988 296.44 64.3188 296.627 64.9481 297C65.5881 297.363 66.0841 297.875 66.4361 298.536C66.7988 299.197 66.9801 299.955 66.9801 300.808ZM62.7881 297.736C62.0521 297.736 61.4335 297.96 60.9321 298.408C60.4415 298.856 60.1535 299.443 60.0681 300.168H65.5081C65.4228 299.453 65.1295 298.872 64.6281 298.424C64.1375 297.965 63.5241 297.736 62.7881 297.736ZM69.363 296.52H70.899V302.696L76.099 296.52H77.491V305H75.955V298.824L70.771 305H69.363V296.52ZM73.331 295.416C72.5417 295.416 71.9283 295.229 71.491 294.856C71.0537 294.472 70.8297 293.923 70.819 293.208H71.859C71.8697 293.603 72.003 293.923 72.259 294.168C72.5257 294.403 72.8777 294.52 73.315 294.52C73.7523 294.52 74.1043 294.403 74.371 294.168C74.6377 293.923 74.7763 293.603 74.787 293.208H75.859C75.8483 293.923 75.619 294.472 75.171 294.856C74.723 295.229 74.1097 295.416 73.331 295.416ZM88.4653 305.096C87.6013 305.096 86.8279 304.909 86.1453 304.536C85.4733 304.163 84.9453 303.651 84.5613 303C84.1773 302.339 83.9853 301.592 83.9853 300.76C83.9853 299.928 84.1773 299.187 84.5613 298.536C84.9453 297.875 85.4733 297.363 86.1453 297C86.8279 296.627 87.6013 296.44 88.4653 296.44C89.2333 296.44 89.9159 296.595 90.5133 296.904C91.1213 297.213 91.5906 297.661 91.9213 298.248L90.7533 299C90.4866 298.595 90.1559 298.291 89.7613 298.088C89.3666 297.885 88.9293 297.784 88.4493 297.784C87.8946 297.784 87.3933 297.907 86.9453 298.152C86.5079 298.397 86.1613 298.749 85.9053 299.208C85.6599 299.656 85.5373 300.173 85.5373 300.76C85.5373 301.357 85.6599 301.885 85.9053 302.344C86.1613 302.792 86.5079 303.139 86.9453 303.384C87.3933 303.629 87.8946 303.752 88.4493 303.752C88.9293 303.752 89.3666 303.651 89.7613 303.448C90.1559 303.245 90.4866 302.941 90.7533 302.536L91.9213 303.272C91.5906 303.859 91.1213 304.312 90.5133 304.632C89.9159 304.941 89.2333 305.096 88.4653 305.096ZM104.527 297.864H101.423V305H99.8868V297.864H96.7828V296.52H104.527V297.864ZM109.121 296.44C110.295 296.44 111.191 296.728 111.809 297.304C112.439 297.88 112.753 298.739 112.753 299.88V305H111.297V303.88C111.041 304.275 110.673 304.579 110.193 304.792C109.724 304.995 109.164 305.096 108.513 305.096C107.564 305.096 106.801 304.867 106.225 304.408C105.66 303.949 105.377 303.347 105.377 302.6C105.377 301.853 105.649 301.256 106.193 300.808C106.737 300.349 107.601 300.12 108.785 300.12H111.217V299.816C111.217 299.155 111.025 298.648 110.641 298.296C110.257 297.944 109.692 297.768 108.945 297.768C108.444 297.768 107.953 297.853 107.473 298.024C106.993 298.184 106.588 298.403 106.257 298.68L105.617 297.528C106.055 297.176 106.577 296.909 107.185 296.728C107.793 296.536 108.439 296.44 109.121 296.44ZM108.769 303.912C109.356 303.912 109.863 303.784 110.289 303.528C110.716 303.261 111.025 302.888 111.217 302.408V301.224H108.849C107.548 301.224 106.897 301.661 106.897 302.536C106.897 302.963 107.063 303.299 107.393 303.544C107.724 303.789 108.183 303.912 108.769 303.912ZM118.815 301.416H117.055V305H115.519V296.52H117.055V300.104H118.847L121.599 296.52H123.247L120.031 300.6L123.471 305H121.663L118.815 301.416ZM125.082 296.52H126.618V302.696L131.818 296.52H133.21V305H131.674V298.824L126.49 305H125.082V296.52ZM145.967 296.52V305H144.575V298.808L141.407 304.04H140.735L137.599 298.792V305H136.191V296.52H137.775L141.103 302.248L144.527 296.52H145.967ZM148.957 296.52H150.493V302.696L155.693 296.52H157.085V305H155.549V298.824L150.365 305H148.957V296.52ZM172.075 301.416H170.427V305H168.891V301.416H167.243L164.907 305H163.083L165.995 300.616L163.307 296.52H164.939L167.227 300.104H168.891V296.52H170.427V300.104H172.091L174.379 296.52H176.027L173.339 300.632L176.251 305H174.427L172.075 301.416ZM185.324 300.808C185.324 300.925 185.313 301.08 185.292 301.272H178.412C178.508 302.019 178.833 302.621 179.388 303.08C179.953 303.528 180.652 303.752 181.484 303.752C182.497 303.752 183.313 303.411 183.932 302.728L184.78 303.72C184.396 304.168 183.916 304.509 183.34 304.744C182.775 304.979 182.14 305.096 181.436 305.096C180.54 305.096 179.745 304.915 179.052 304.552C178.359 304.179 177.82 303.661 177.436 303C177.063 302.339 176.876 301.592 176.876 300.76C176.876 299.939 177.057 299.197 177.42 298.536C177.793 297.875 178.3 297.363 178.94 297C179.591 296.627 180.321 296.44 181.132 296.44C181.943 296.44 182.663 296.627 183.292 297C183.932 297.363 184.428 297.875 184.78 298.536C185.143 299.197 185.324 299.955 185.324 300.808ZM181.132 297.736C180.396 297.736 179.777 297.96 179.276 298.408C178.785 298.856 178.497 299.443 178.412 300.168H183.852C183.767 299.453 183.473 298.872 182.972 298.424C182.481 297.965 181.868 297.736 181.132 297.736ZM31.488 320.52H33.024V326.696L38.224 320.52H39.616V329H38.08V322.824L32.896 329H31.488V320.52ZM42.5974 320.52H44.1334V324.12H48.9654V320.52H50.5014V329H48.9654V325.448H44.1334V329H42.5974V320.52ZM59.808 321.864H56.704V329H55.168V321.864H52.064V320.52H59.808V321.864ZM68.6676 324.808C68.6676 324.925 68.657 325.08 68.6356 325.272H61.7556C61.8516 326.019 62.177 326.621 62.7316 327.08C63.297 327.528 63.9956 327.752 64.8276 327.752C65.841 327.752 66.657 327.411 67.2756 326.728L68.1236 327.72C67.7396 328.168 67.2596 328.509 66.6836 328.744C66.1183 328.979 65.4836 329.096 64.7796 329.096C63.8836 329.096 63.089 328.915 62.3956 328.552C61.7023 328.179 61.1636 327.661 60.7796 327C60.4063 326.339 60.2196 325.592 60.2196 324.76C60.2196 323.939 60.401 323.197 60.7636 322.536C61.137 321.875 61.6436 321.363 62.2836 321C62.9343 320.627 63.665 320.44 64.4756 320.44C65.2863 320.44 66.0063 320.627 66.6356 321C67.2756 321.363 67.7716 321.875 68.1236 322.536C68.4863 323.197 68.6676 323.955 68.6676 324.808ZM64.4756 321.736C63.7396 321.736 63.121 321.96 62.6196 322.408C62.129 322.856 61.841 323.443 61.7556 324.168H67.1956C67.1103 323.453 66.817 322.872 66.3156 322.424C65.825 321.965 65.2116 321.736 64.4756 321.736ZM75.5465 320.44C76.3678 320.44 77.1038 320.621 77.7545 320.984C78.4052 321.347 78.9118 321.853 79.2745 322.504C79.6478 323.155 79.8345 323.907 79.8345 324.76C79.8345 325.613 79.6478 326.371 79.2745 327.032C78.9118 327.683 78.4052 328.189 77.7545 328.552C77.1038 328.915 76.3678 329.096 75.5465 329.096C74.9385 329.096 74.3785 328.979 73.8665 328.744C73.3652 328.509 72.9385 328.168 72.5865 327.72V332.104H71.0505V320.52H72.5225V321.864C72.8638 321.395 73.2958 321.043 73.8185 320.808C74.3412 320.563 74.9172 320.44 75.5465 320.44ZM75.4185 327.752C75.9625 327.752 76.4478 327.629 76.8745 327.384C77.3118 327.128 77.6532 326.776 77.8985 326.328C78.1545 325.869 78.2825 325.347 78.2825 324.76C78.2825 324.173 78.1545 323.656 77.8985 323.208C77.6532 322.749 77.3118 322.397 76.8745 322.152C76.4478 321.907 75.9625 321.784 75.4185 321.784C74.8852 321.784 74.3998 321.912 73.9625 322.168C73.5358 322.413 73.1945 322.76 72.9385 323.208C72.6932 323.656 72.5705 324.173 72.5705 324.76C72.5705 325.347 72.6932 325.869 72.9385 326.328C73.1838 326.776 73.5252 327.128 73.9625 327.384C74.3998 327.629 74.8852 327.752 75.4185 327.752ZM89.7301 324.808C89.7301 324.925 89.7195 325.08 89.6981 325.272H82.8181C82.9141 326.019 83.2395 326.621 83.7941 327.08C84.3595 327.528 85.0581 327.752 85.8901 327.752C86.9035 327.752 87.7195 327.411 88.3381 326.728L89.1861 327.72C88.8021 328.168 88.3221 328.509 87.7461 328.744C87.1808 328.979 86.5461 329.096 85.8421 329.096C84.9461 329.096 84.1515 328.915 83.4581 328.552C82.7648 328.179 82.2261 327.661 81.8421 327C81.4688 326.339 81.2821 325.592 81.2821 324.76C81.2821 323.939 81.4635 323.197 81.8261 322.536C82.1995 321.875 82.7061 321.363 83.3461 321C83.9968 320.627 84.7275 320.44 85.5381 320.44C86.3488 320.44 87.0688 320.627 87.6981 321C88.3381 321.363 88.8341 321.875 89.1861 322.536C89.5488 323.197 89.7301 323.955 89.7301 324.808ZM85.5381 321.736C84.8021 321.736 84.1835 321.96 83.6821 322.408C83.1915 322.856 82.9035 323.443 82.8181 324.168H88.2581C88.1728 323.453 87.8795 322.872 87.3781 322.424C86.8875 321.965 86.2741 321.736 85.5381 321.736ZM95.809 329.096C94.945 329.096 94.1717 328.909 93.489 328.536C92.817 328.163 92.289 327.651 91.905 327C91.521 326.339 91.329 325.592 91.329 324.76C91.329 323.928 91.521 323.187 91.905 322.536C92.289 321.875 92.817 321.363 93.489 321C94.1717 320.627 94.945 320.44 95.809 320.44C96.577 320.44 97.2597 320.595 97.857 320.904C98.465 321.213 98.9343 321.661 99.265 322.248L98.097 323C97.8303 322.595 97.4997 322.291 97.105 322.088C96.7103 321.885 96.273 321.784 95.793 321.784C95.2383 321.784 94.737 321.907 94.289 322.152C93.8517 322.397 93.505 322.749 93.249 323.208C93.0037 323.656 92.881 324.173 92.881 324.76C92.881 325.357 93.0037 325.885 93.249 326.344C93.505 326.792 93.8517 327.139 94.289 327.384C94.737 327.629 95.2383 327.752 95.793 327.752C96.273 327.752 96.7103 327.651 97.105 327.448C97.4997 327.245 97.8303 326.941 98.097 326.536L99.265 327.272C98.9343 327.859 98.465 328.312 97.857 328.632C97.2597 328.941 96.577 329.096 95.809 329.096ZM104.278 320.44C105.451 320.44 106.347 320.728 106.966 321.304C107.595 321.88 107.91 322.739 107.91 323.88V329H106.454V327.88C106.198 328.275 105.83 328.579 105.35 328.792C104.88 328.995 104.32 329.096 103.67 329.096C102.72 329.096 101.958 328.867 101.382 328.408C100.816 327.949 100.534 327.347 100.534 326.6C100.534 325.853 100.806 325.256 101.35 324.808C101.894 324.349 102.758 324.12 103.942 324.12H106.374V323.816C106.374 323.155 106.182 322.648 105.798 322.296C105.414 321.944 104.848 321.768 104.102 321.768C103.6 321.768 103.11 321.853 102.63 322.024C102.15 322.184 101.744 322.403 101.414 322.68L100.774 321.528C101.211 321.176 101.734 320.909 102.342 320.728C102.95 320.536 103.595 320.44 104.278 320.44ZM103.926 327.912C104.512 327.912 105.019 327.784 105.446 327.528C105.872 327.261 106.182 326.888 106.374 326.408V325.224H104.006C102.704 325.224 102.054 325.661 102.054 326.536C102.054 326.963 102.219 327.299 102.55 327.544C102.88 327.789 103.339 327.912 103.926 327.912ZM120.452 320.52V329H119.06V322.808L115.892 328.04H115.22L112.084 322.792V329H110.676V320.52H112.26L115.588 326.248L119.012 320.52H120.452ZM123.441 320.52H124.977V326.696L130.177 320.52H131.569V329H130.033V322.824L124.849 329H123.441V320.52Z" fill="white"/>
</svg>
