<svg width="300" height="361" viewBox="0 0 300 361" fill="none" xmlns="http://www.w3.org/2000/svg">
<rect width="300" height="361" rx="24" fill="url(#paint0_linear_460_472)"/>
<path opacity="0.5" d="M67.392 141.536C59.968 141.536 53.3547 139.701 47.552 136.032C41.7493 132.363 37.184 127.072 33.856 120.16C30.6133 113.163 28.992 104.843 28.992 95.2C28.992 85.5573 30.6133 77.28 33.856 70.368C37.184 63.3707 41.7493 58.0373 47.552 54.368C53.3547 50.6987 59.968 48.864 67.392 48.864C74.816 48.864 81.4293 50.6987 87.232 54.368C93.0347 58.0373 97.5573 63.3707 100.8 70.368C104.128 77.28 105.792 85.5573 105.792 95.2C105.792 104.843 104.128 113.163 100.8 120.16C97.5573 127.072 93.0347 132.363 87.232 136.032C81.4293 139.701 74.816 141.536 67.392 141.536ZM67.392 124C72.8533 124 77.12 121.653 80.192 116.96C83.3493 112.267 84.928 105.013 84.928 95.2C84.928 85.3867 83.3493 78.1333 80.192 73.44C77.12 68.7467 72.8533 66.4 67.392 66.4C62.016 66.4 57.7493 68.7467 54.592 73.44C51.52 78.1333 49.984 85.3867 49.984 95.2C49.984 105.013 51.52 112.267 54.592 116.96C57.7493 121.653 62.016 124 67.392 124ZM149.677 50.4V140H128.941V67.04H111.021V50.4H149.677Z" fill="white"/>
<path d="M39.72 249.192C40.4773 249.373 41.048 249.699 41.432 250.168C41.8267 250.627 42.024 251.219 42.024 251.944C42.024 252.915 41.6667 253.667 40.952 254.2C40.248 254.733 39.2187 255 37.864 255H32.744V243.8H37.56C38.7867 243.8 39.7413 244.051 40.424 244.552C41.1173 245.043 41.464 245.752 41.464 246.68C41.464 247.288 41.3093 247.805 41 248.232C40.7013 248.659 40.2747 248.979 39.72 249.192ZM34.328 248.728H37.448C38.2267 248.728 38.8187 248.573 39.224 248.264C39.64 247.955 39.848 247.501 39.848 246.904C39.848 246.307 39.64 245.853 39.224 245.544C38.808 245.224 38.216 245.064 37.448 245.064H34.328V248.728ZM37.832 253.736C39.5493 253.736 40.408 253.096 40.408 251.816C40.408 251.176 40.1893 250.707 39.752 250.408C39.3253 250.099 38.6853 249.944 37.832 249.944H34.328V253.736H37.832ZM47.4651 246.44C48.6385 246.44 49.5345 246.728 50.1531 247.304C50.7825 247.88 51.0971 248.739 51.0971 249.88V255H49.6411V253.88C49.3851 254.275 49.0171 254.579 48.5371 254.792C48.0678 254.995 47.5078 255.096 46.8571 255.096C45.9078 255.096 45.1451 254.867 44.5691 254.408C44.0038 253.949 43.7211 253.347 43.7211 252.6C43.7211 251.853 43.9931 251.256 44.5371 250.808C45.0811 250.349 45.9451 250.12 47.1291 250.12H49.5611V249.816C49.5611 249.155 49.3691 248.648 48.9851 248.296C48.6011 247.944 48.0358 247.768 47.2891 247.768C46.7878 247.768 46.2971 247.853 45.8171 248.024C45.3371 248.184 44.9318 248.403 44.6011 248.68L43.9611 247.528C44.3985 247.176 44.9211 246.909 45.5291 246.728C46.1371 246.536 46.7825 246.44 47.4651 246.44ZM47.1131 253.912C47.6998 253.912 48.2065 253.784 48.6331 253.528C49.0598 253.261 49.3691 252.888 49.5611 252.408V251.224H47.1931C45.8918 251.224 45.2411 251.661 45.2411 252.536C45.2411 252.963 45.4065 253.299 45.7371 253.544C46.0678 253.789 46.5265 253.912 47.1131 253.912ZM65.943 246.52V255H53.863V246.52H55.399V253.656H59.143V246.52H60.679V253.656H64.407V246.52H65.943ZM77.7184 246.44C78.5397 246.44 79.2757 246.621 79.9264 246.984C80.577 247.347 81.0837 247.853 81.4464 248.504C81.8197 249.155 82.0064 249.907 82.0064 250.76C82.0064 251.613 81.8197 252.371 81.4464 253.032C81.0837 253.683 80.577 254.189 79.9264 254.552C79.2757 254.915 78.5397 255.096 77.7184 255.096C77.1104 255.096 76.5504 254.979 76.0384 254.744C75.537 254.509 75.1104 254.168 74.7584 253.72V258.104H73.2224V246.52H74.6944V247.864C75.0357 247.395 75.4677 247.043 75.9904 246.808C76.513 246.563 77.089 246.44 77.7184 246.44ZM77.5904 253.752C78.1344 253.752 78.6197 253.629 79.0464 253.384C79.4837 253.128 79.825 252.776 80.0704 252.328C80.3264 251.869 80.4544 251.347 80.4544 250.76C80.4544 250.173 80.3264 249.656 80.0704 249.208C79.825 248.749 79.4837 248.397 79.0464 248.152C78.6197 247.907 78.1344 247.784 77.5904 247.784C77.057 247.784 76.5717 247.912 76.1344 248.168C75.7077 248.413 75.3664 248.76 75.1104 249.208C74.865 249.656 74.7424 250.173 74.7424 250.76C74.7424 251.347 74.865 251.869 75.1104 252.328C75.3557 252.776 75.697 253.128 76.1344 253.384C76.5717 253.629 77.057 253.752 77.5904 253.752ZM91.902 250.808C91.902 250.925 91.8913 251.08 91.87 251.272H84.99C85.086 252.019 85.4113 252.621 85.966 253.08C86.5313 253.528 87.23 253.752 88.062 253.752C89.0753 253.752 89.8913 253.411 90.51 252.728L91.358 253.72C90.974 254.168 90.494 254.509 89.918 254.744C89.3527 254.979 88.718 255.096 88.014 255.096C87.118 255.096 86.3233 254.915 85.63 254.552C84.9367 254.179 84.398 253.661 84.014 253C83.6407 252.339 83.454 251.592 83.454 250.76C83.454 249.939 83.6353 249.197 83.998 248.536C84.3713 247.875 84.878 247.363 85.518 247C86.1687 246.627 86.8993 246.44 87.71 246.44C88.5207 246.44 89.2407 246.627 89.87 247C90.51 247.363 91.006 247.875 91.358 248.536C91.7207 249.197 91.902 249.955 91.902 250.808ZM87.71 247.736C86.974 247.736 86.3553 247.96 85.854 248.408C85.3633 248.856 85.0753 249.443 84.99 250.168H90.43C90.3447 249.453 90.0513 248.872 89.55 248.424C89.0593 247.965 88.446 247.736 87.71 247.736ZM98.6049 246.808C99.3942 246.808 100.098 246.984 100.717 247.336C101.336 247.688 101.816 248.179 102.157 248.808C102.509 249.427 102.685 250.136 102.685 250.936C102.685 251.757 102.498 252.488 102.125 253.128C101.762 253.757 101.245 254.248 100.573 254.6C99.9115 254.952 99.1542 255.128 98.3009 255.128C96.8609 255.128 95.7462 254.637 94.9569 253.656C94.1782 252.664 93.7889 251.272 93.7889 249.48C93.7889 247.741 94.1462 246.381 94.8609 245.4C95.5755 244.408 96.6689 243.752 98.1409 243.432L102.013 242.568L102.237 243.976L98.6689 244.744C97.5595 244.989 96.7329 245.405 96.1889 245.992C95.6449 246.579 95.3355 247.421 95.2609 248.52C95.6235 247.976 96.0929 247.555 96.6689 247.256C97.2449 246.957 97.8902 246.808 98.6049 246.808ZM98.3329 253.848C98.8769 253.848 99.3569 253.725 99.7729 253.48C100.2 253.235 100.53 252.899 100.765 252.472C101 252.035 101.117 251.539 101.117 250.984C101.117 250.141 100.861 249.464 100.349 248.952C99.8369 248.44 99.1649 248.184 98.3329 248.184C97.5009 248.184 96.8235 248.44 96.3009 248.952C95.7889 249.464 95.5329 250.141 95.5329 250.984C95.5329 251.539 95.6502 252.035 95.8849 252.472C96.1302 252.899 96.4662 253.235 96.8929 253.48C97.3195 253.725 97.7995 253.848 98.3329 253.848ZM112.543 250.808C112.543 250.925 112.532 251.08 112.511 251.272H105.631C105.727 252.019 106.052 252.621 106.607 253.08C107.172 253.528 107.871 253.752 108.703 253.752C109.716 253.752 110.532 253.411 111.151 252.728L111.999 253.72C111.615 254.168 111.135 254.509 110.559 254.744C109.993 254.979 109.359 255.096 108.655 255.096C107.759 255.096 106.964 254.915 106.271 254.552C105.577 254.179 105.039 253.661 104.655 253C104.281 252.339 104.095 251.592 104.095 250.76C104.095 249.939 104.276 249.197 104.639 248.536C105.012 247.875 105.519 247.363 106.159 247C106.809 246.627 107.54 246.44 108.351 246.44C109.161 246.44 109.881 246.627 110.511 247C111.151 247.363 111.647 247.875 111.999 248.536C112.361 249.197 112.543 249.955 112.543 250.808ZM108.351 247.736C107.615 247.736 106.996 247.96 106.495 248.408C106.004 248.856 105.716 249.443 105.631 250.168H111.071C110.985 249.453 110.692 248.872 110.191 248.424C109.7 247.965 109.087 247.736 108.351 247.736ZM114.926 246.52H116.462V250.12H121.294V246.52H122.83V255H121.294V251.448H116.462V255H114.926V246.52ZM129.448 255.096C128.605 255.096 127.848 254.909 127.176 254.536C126.504 254.163 125.976 253.651 125.592 253C125.219 252.339 125.032 251.592 125.032 250.76C125.032 249.928 125.219 249.187 125.592 248.536C125.976 247.875 126.504 247.363 127.176 247C127.848 246.627 128.605 246.44 129.448 246.44C130.291 246.44 131.043 246.627 131.704 247C132.376 247.363 132.899 247.875 133.272 248.536C133.656 249.187 133.848 249.928 133.848 250.76C133.848 251.592 133.656 252.339 133.272 253C132.899 253.651 132.376 254.163 131.704 254.536C131.043 254.909 130.291 255.096 129.448 255.096ZM129.448 253.752C129.992 253.752 130.477 253.629 130.904 253.384C131.341 253.128 131.683 252.776 131.928 252.328C132.173 251.869 132.296 251.347 132.296 250.76C132.296 250.173 132.173 249.656 131.928 249.208C131.683 248.749 131.341 248.397 130.904 248.152C130.477 247.907 129.992 247.784 129.448 247.784C128.904 247.784 128.413 247.907 127.976 248.152C127.549 248.397 127.208 248.749 126.952 249.208C126.707 249.656 126.584 250.173 126.584 250.76C126.584 251.347 126.707 251.869 126.952 252.328C127.208 252.776 127.549 253.128 127.976 253.384C128.413 253.629 128.904 253.752 129.448 253.752ZM139.362 251.416H137.602V255H136.066V246.52H137.602V250.104H139.394L142.146 246.52H143.794L140.578 250.6L144.018 255H142.21L139.362 251.416ZM157.782 246.52V255H156.246V247.864H151.462V255H149.926V246.52H157.782ZM165.25 246.44C166.071 246.44 166.807 246.621 167.458 246.984C168.108 247.347 168.615 247.853 168.978 248.504C169.351 249.155 169.538 249.907 169.538 250.76C169.538 251.613 169.351 252.371 168.978 253.032C168.615 253.683 168.108 254.189 167.458 254.552C166.807 254.915 166.071 255.096 165.25 255.096C164.642 255.096 164.082 254.979 163.57 254.744C163.068 254.509 162.642 254.168 162.29 253.72V258.104H160.754V246.52H162.226V247.864C162.567 247.395 162.999 247.043 163.522 246.808C164.044 246.563 164.62 246.44 165.25 246.44ZM165.122 253.752C165.666 253.752 166.151 253.629 166.578 253.384C167.015 253.128 167.356 252.776 167.602 252.328C167.858 251.869 167.986 251.347 167.986 250.76C167.986 250.173 167.858 249.656 167.602 249.208C167.356 248.749 167.015 248.397 166.578 248.152C166.151 247.907 165.666 247.784 165.122 247.784C164.588 247.784 164.103 247.912 163.666 248.168C163.239 248.413 162.898 248.76 162.642 249.208C162.396 249.656 162.274 250.173 162.274 250.76C162.274 251.347 162.396 251.869 162.642 252.328C162.887 252.776 163.228 253.128 163.666 253.384C164.103 253.629 164.588 253.752 165.122 253.752ZM175.401 255.096C174.559 255.096 173.801 254.909 173.129 254.536C172.457 254.163 171.929 253.651 171.545 253C171.172 252.339 170.985 251.592 170.985 250.76C170.985 249.928 171.172 249.187 171.545 248.536C171.929 247.875 172.457 247.363 173.129 247C173.801 246.627 174.559 246.44 175.401 246.44C176.244 246.44 176.996 246.627 177.657 247C178.329 247.363 178.852 247.875 179.225 248.536C179.609 249.187 179.801 249.928 179.801 250.76C179.801 251.592 179.609 252.339 179.225 253C178.852 253.651 178.329 254.163 177.657 254.536C176.996 254.909 176.244 255.096 175.401 255.096ZM175.401 253.752C175.945 253.752 176.431 253.629 176.857 253.384C177.295 253.128 177.636 252.776 177.881 252.328C178.127 251.869 178.249 251.347 178.249 250.76C178.249 250.173 178.127 249.656 177.881 249.208C177.636 248.749 177.295 248.397 176.857 248.152C176.431 247.907 175.945 247.784 175.401 247.784C174.857 247.784 174.367 247.907 173.929 248.152C173.503 248.397 173.161 248.749 172.905 249.208C172.66 249.656 172.537 250.173 172.537 250.76C172.537 251.347 172.66 251.869 172.905 252.328C173.161 252.776 173.503 253.128 173.929 253.384C174.367 253.629 174.857 253.752 175.401 253.752ZM182.019 246.52H183.555V252.696L188.755 246.52H190.147V255H188.611V248.824L183.427 255H182.019V246.52ZM185.987 245.416C185.198 245.416 184.585 245.229 184.147 244.856C183.71 244.472 183.486 243.923 183.475 243.208H184.515C184.526 243.603 184.659 243.923 184.915 244.168C185.182 244.403 185.534 244.52 185.971 244.52C186.409 244.52 186.761 244.403 187.027 244.168C187.294 243.923 187.433 243.603 187.443 243.208H188.515C188.505 243.923 188.275 244.472 187.827 244.856C187.379 245.229 186.766 245.416 185.987 245.416ZM201.753 253.656V256.968H200.313V255H193.225V256.968H191.769V253.656H192.217C192.761 253.624 193.134 253.24 193.337 252.504C193.539 251.768 193.678 250.728 193.753 249.384L193.881 246.52H200.457V253.656H201.753ZM195.161 249.496C195.118 250.563 195.027 251.448 194.889 252.152C194.761 252.845 194.521 253.347 194.169 253.656H198.921V247.864H195.241L195.161 249.496ZM211.418 250.808C211.418 250.925 211.407 251.08 211.386 251.272H204.506C204.602 252.019 204.927 252.621 205.482 253.08C206.047 253.528 206.746 253.752 207.578 253.752C208.591 253.752 209.407 253.411 210.026 252.728L210.874 253.72C210.49 254.168 210.01 254.509 209.434 254.744C208.868 254.979 208.234 255.096 207.53 255.096C206.634 255.096 205.839 254.915 205.146 254.552C204.452 254.179 203.914 253.661 203.53 253C203.156 252.339 202.97 251.592 202.97 250.76C202.97 249.939 203.151 249.197 203.514 248.536C203.887 247.875 204.394 247.363 205.034 247C205.684 246.627 206.415 246.44 207.226 246.44C208.036 246.44 208.756 246.627 209.386 247C210.026 247.363 210.522 247.875 210.874 248.536C211.236 249.197 211.418 249.955 211.418 250.808ZM207.226 247.736C206.49 247.736 205.871 247.96 205.37 248.408C204.879 248.856 204.591 249.443 204.506 250.168H209.946C209.86 249.453 209.567 248.872 209.066 248.424C208.575 247.965 207.962 247.736 207.226 247.736ZM219.761 247.864H216.657V255H215.121V247.864H212.017V246.52H219.761V247.864ZM40.056 270.52L35.944 279.848C35.5813 280.712 35.1547 281.32 34.664 281.672C34.184 282.024 33.6027 282.2 32.92 282.2C32.504 282.2 32.0987 282.131 31.704 281.992C31.32 281.864 31 281.672 30.744 281.416L31.4 280.264C31.8373 280.68 32.344 280.888 32.92 280.888C33.2933 280.888 33.6027 280.787 33.848 280.584C34.104 280.392 34.3333 280.056 34.536 279.576L34.808 278.984L31.064 270.52H32.664L35.624 277.304L38.552 270.52H40.056ZM41.6286 270.52H43.1646V274.12H47.9966V270.52H49.5326V279H47.9966V275.448H43.1646V279H41.6286V270.52ZM52.5193 270.52H54.0553V276.696L59.2552 270.52H60.6473V279H59.1112V272.824L53.9273 279H52.5193V270.52ZM66.9246 275.416H65.1646V279H63.6286V270.52H65.1646V274.104H66.9566L69.7086 270.52H71.3566L68.1406 274.6L71.5806 279H69.7726L66.9246 275.416ZM76.0589 270.44C77.2322 270.44 78.1282 270.728 78.7469 271.304C79.3762 271.88 79.6909 272.739 79.6909 273.88V279H78.2349V277.88C77.9789 278.275 77.6109 278.579 77.1309 278.792C76.6615 278.995 76.1015 279.096 75.4509 279.096C74.5015 279.096 73.7389 278.867 73.1629 278.408C72.5975 277.949 72.3149 277.347 72.3149 276.6C72.3149 275.853 72.5869 275.256 73.1309 274.808C73.6749 274.349 74.5389 274.12 75.7229 274.12H78.1549V273.816C78.1549 273.155 77.9629 272.648 77.5789 272.296C77.1949 271.944 76.6295 271.768 75.8829 271.768C75.3815 271.768 74.8909 271.853 74.4109 272.024C73.9309 272.184 73.5255 272.403 73.1949 272.68L72.5549 271.528C72.9922 271.176 73.5149 270.909 74.1229 270.728C74.7309 270.536 75.3762 270.44 76.0589 270.44ZM75.7069 277.912C76.2935 277.912 76.8002 277.784 77.2269 277.528C77.6535 277.261 77.9629 276.888 78.1549 276.408V275.224H75.7869C74.4855 275.224 73.8349 275.661 73.8349 276.536C73.8349 276.963 74.0002 277.299 74.3309 277.544C74.6615 277.789 75.1202 277.912 75.7069 277.912ZM89.7368 270.52V279H88.2008V271.864H84.5528L84.4568 273.752C84.4034 274.893 84.3021 275.848 84.1528 276.616C84.0034 277.373 83.7581 277.981 83.4168 278.44C83.0754 278.899 82.6008 279.128 81.9928 279.128C81.7154 279.128 81.4008 279.08 81.0488 278.984L81.1448 277.688C81.2834 277.72 81.4114 277.736 81.5288 277.736C81.9554 277.736 82.2754 277.549 82.4888 277.176C82.7021 276.803 82.8408 276.36 82.9048 275.848C82.9688 275.336 83.0274 274.605 83.0807 273.656L83.2248 270.52H89.7368ZM96.6268 273.4C97.7041 273.411 98.5254 273.656 99.0908 274.136C99.6561 274.616 99.9388 275.293 99.9388 276.168C99.9388 277.085 99.6294 277.795 99.0108 278.296C98.4028 278.787 97.5281 279.027 96.3868 279.016L92.7068 279V270.52H94.2428V273.384L96.6268 273.4ZM96.2588 277.848C96.9521 277.859 97.4748 277.72 97.8268 277.432C98.1894 277.144 98.3708 276.717 98.3708 276.152C98.3708 275.597 98.1948 275.192 97.8428 274.936C97.5014 274.68 96.9734 274.547 96.2588 274.536L94.2428 274.504V277.832L96.2588 277.848ZM101.91 270.52H103.446V274.12H108.278V270.52H109.814V279H108.278V275.448H103.446V279H101.91V270.52ZM116.433 279.096C115.59 279.096 114.833 278.909 114.161 278.536C113.489 278.163 112.961 277.651 112.577 277C112.203 276.339 112.017 275.592 112.017 274.76C112.017 273.928 112.203 273.187 112.577 272.536C112.961 271.875 113.489 271.363 114.161 271C114.833 270.627 115.59 270.44 116.433 270.44C117.275 270.44 118.027 270.627 118.689 271C119.361 271.363 119.883 271.875 120.257 272.536C120.641 273.187 120.833 273.928 120.833 274.76C120.833 275.592 120.641 276.339 120.257 277C119.883 277.651 119.361 278.163 118.689 278.536C118.027 278.909 117.275 279.096 116.433 279.096ZM116.433 277.752C116.977 277.752 117.462 277.629 117.889 277.384C118.326 277.128 118.667 276.776 118.913 276.328C119.158 275.869 119.281 275.347 119.281 274.76C119.281 274.173 119.158 273.656 118.913 273.208C118.667 272.749 118.326 272.397 117.889 272.152C117.462 271.907 116.977 271.784 116.433 271.784C115.889 271.784 115.398 271.907 114.961 272.152C114.534 272.397 114.193 272.749 113.937 273.208C113.691 273.656 113.569 274.173 113.569 274.76C113.569 275.347 113.691 275.869 113.937 276.328C114.193 276.776 114.534 277.128 114.961 277.384C115.398 277.629 115.889 277.752 116.433 277.752ZM130.715 274.808C130.715 274.925 130.704 275.08 130.683 275.272H123.803C123.899 276.019 124.224 276.621 124.779 277.08C125.344 277.528 126.043 277.752 126.875 277.752C127.888 277.752 128.704 277.411 129.323 276.728L130.171 277.72C129.787 278.168 129.307 278.509 128.731 278.744C128.165 278.979 127.531 279.096 126.827 279.096C125.931 279.096 125.136 278.915 124.443 278.552C123.749 278.179 123.211 277.661 122.827 277C122.453 276.339 122.267 275.592 122.267 274.76C122.267 273.939 122.448 273.197 122.811 272.536C123.184 271.875 123.691 271.363 124.331 271C124.981 270.627 125.712 270.44 126.523 270.44C127.333 270.44 128.053 270.627 128.683 271C129.323 271.363 129.819 271.875 130.171 272.536C130.533 273.197 130.715 273.955 130.715 274.808ZM126.523 271.736C125.787 271.736 125.168 271.96 124.667 272.408C124.176 272.856 123.888 273.443 123.803 274.168H129.243C129.157 273.453 128.864 272.872 128.363 272.424C127.872 271.965 127.259 271.736 126.523 271.736ZM143.714 271.864H140.61V279H139.074V271.864H135.97V270.52H143.714V271.864ZM152.574 274.808C152.574 274.925 152.563 275.08 152.542 275.272H145.662C145.758 276.019 146.083 276.621 146.638 277.08C147.203 277.528 147.902 277.752 148.734 277.752C149.747 277.752 150.563 277.411 151.182 276.728L152.03 277.72C151.646 278.168 151.166 278.509 150.59 278.744C150.025 278.979 149.39 279.096 148.686 279.096C147.79 279.096 146.995 278.915 146.302 278.552C145.609 278.179 145.07 277.661 144.686 277C144.313 276.339 144.126 275.592 144.126 274.76C144.126 273.939 144.307 273.197 144.67 272.536C145.043 271.875 145.55 271.363 146.19 271C146.841 270.627 147.571 270.44 148.382 270.44C149.193 270.44 149.913 270.627 150.542 271C151.182 271.363 151.678 271.875 152.03 272.536C152.393 273.197 152.574 273.955 152.574 274.808ZM148.382 271.736C147.646 271.736 147.027 271.96 146.526 272.408C146.035 272.856 145.747 273.443 145.662 274.168H151.102C151.017 273.453 150.723 272.872 150.222 272.424C149.731 271.965 149.118 271.736 148.382 271.736ZM158.653 279.096C157.789 279.096 157.015 278.909 156.333 278.536C155.661 278.163 155.133 277.651 154.749 277C154.365 276.339 154.173 275.592 154.173 274.76C154.173 273.928 154.365 273.187 154.749 272.536C155.133 271.875 155.661 271.363 156.333 271C157.015 270.627 157.789 270.44 158.653 270.44C159.421 270.44 160.103 270.595 160.701 270.904C161.309 271.213 161.778 271.661 162.109 272.248L160.941 273C160.674 272.595 160.343 272.291 159.949 272.088C159.554 271.885 159.117 271.784 158.637 271.784C158.082 271.784 157.581 271.907 157.133 272.152C156.695 272.397 156.349 272.749 156.093 273.208C155.847 273.656 155.725 274.173 155.725 274.76C155.725 275.357 155.847 275.885 156.093 276.344C156.349 276.792 156.695 277.139 157.133 277.384C157.581 277.629 158.082 277.752 158.637 277.752C159.117 277.752 159.554 277.651 159.949 277.448C160.343 277.245 160.674 276.941 160.941 276.536L162.109 277.272C161.778 277.859 161.309 278.312 160.701 278.632C160.103 278.941 159.421 279.096 158.653 279.096ZM170.308 271.864H167.204V279H165.668V271.864H162.564V270.52H170.308V271.864ZM171.879 270.52H173.415V276.696L178.615 270.52H180.007V279H178.471V272.824L173.287 279H171.879V270.52ZM187.484 270.44C188.305 270.44 189.041 270.621 189.692 270.984C190.343 271.347 190.849 271.853 191.212 272.504C191.585 273.155 191.772 273.907 191.772 274.76C191.772 275.613 191.585 276.371 191.212 277.032C190.849 277.683 190.343 278.189 189.692 278.552C189.041 278.915 188.305 279.096 187.484 279.096C186.876 279.096 186.316 278.979 185.804 278.744C185.303 278.509 184.876 278.168 184.524 277.72V282.104H182.988V270.52H184.46V271.864C184.801 271.395 185.233 271.043 185.756 270.808C186.279 270.563 186.855 270.44 187.484 270.44ZM187.356 277.752C187.9 277.752 188.385 277.629 188.812 277.384C189.249 277.128 189.591 276.776 189.836 276.328C190.092 275.869 190.22 275.347 190.22 274.76C190.22 274.173 190.092 273.656 189.836 273.208C189.591 272.749 189.249 272.397 188.812 272.152C188.385 271.907 187.9 271.784 187.356 271.784C186.823 271.784 186.337 271.912 185.9 272.168C185.473 272.413 185.132 272.76 184.876 273.208C184.631 273.656 184.508 274.173 184.508 274.76C184.508 275.347 184.631 275.869 184.876 276.328C185.121 276.776 185.463 277.128 185.9 277.384C186.337 277.629 186.823 277.752 187.356 277.752ZM197.636 279.096C196.793 279.096 196.036 278.909 195.364 278.536C194.692 278.163 194.164 277.651 193.78 277C193.406 276.339 193.22 275.592 193.22 274.76C193.22 273.928 193.406 273.187 193.78 272.536C194.164 271.875 194.692 271.363 195.364 271C196.036 270.627 196.793 270.44 197.636 270.44C198.478 270.44 199.23 270.627 199.892 271C200.564 271.363 201.086 271.875 201.46 272.536C201.844 273.187 202.036 273.928 202.036 274.76C202.036 275.592 201.844 276.339 201.46 277C201.086 277.651 200.564 278.163 199.892 278.536C199.23 278.909 198.478 279.096 197.636 279.096ZM197.636 277.752C198.18 277.752 198.665 277.629 199.092 277.384C199.529 277.128 199.87 276.776 200.116 276.328C200.361 275.869 200.484 275.347 200.484 274.76C200.484 274.173 200.361 273.656 200.116 273.208C199.87 272.749 199.529 272.397 199.092 272.152C198.665 271.907 198.18 271.784 197.636 271.784C197.092 271.784 196.601 271.907 196.164 272.152C195.737 272.397 195.396 272.749 195.14 273.208C194.894 273.656 194.772 274.173 194.772 274.76C194.772 275.347 194.894 275.869 195.14 276.328C195.396 276.776 195.737 277.128 196.164 277.384C196.601 277.629 197.092 277.752 197.636 277.752ZM210.03 274.6C211.128 274.877 211.678 275.565 211.678 276.664C211.678 277.411 211.395 277.987 210.83 278.392C210.275 278.797 209.443 279 208.334 279H204.254V270.52H208.19C209.192 270.52 209.976 270.712 210.542 271.096C211.107 271.469 211.39 272.003 211.39 272.696C211.39 273.144 211.267 273.533 211.022 273.864C210.787 274.184 210.456 274.429 210.03 274.6ZM205.758 274.168H208.062C208.648 274.168 209.091 274.061 209.39 273.848C209.699 273.635 209.854 273.325 209.854 272.92C209.854 272.109 209.256 271.704 208.062 271.704H205.758V274.168ZM208.222 277.816C208.862 277.816 209.342 277.715 209.662 277.512C209.982 277.309 210.142 276.995 210.142 276.568C210.142 276.131 209.992 275.805 209.694 275.592C209.406 275.379 208.947 275.272 208.318 275.272H205.758V277.816H208.222ZM217.106 270.44C218.279 270.44 219.175 270.728 219.794 271.304C220.423 271.88 220.738 272.739 220.738 273.88V279H219.282V277.88C219.026 278.275 218.658 278.579 218.178 278.792C217.708 278.995 217.148 279.096 216.498 279.096C215.548 279.096 214.786 278.867 214.21 278.408C213.644 277.949 213.362 277.347 213.362 276.6C213.362 275.853 213.634 275.256 214.178 274.808C214.722 274.349 215.586 274.12 216.77 274.12H219.202V273.816C219.202 273.155 219.01 272.648 218.626 272.296C218.242 271.944 217.676 271.768 216.93 271.768C216.428 271.768 215.938 271.853 215.458 272.024C214.978 272.184 214.572 272.403 214.242 272.68L213.602 271.528C214.039 271.176 214.562 270.909 215.17 270.728C215.778 270.536 216.423 270.44 217.106 270.44ZM216.754 277.912C217.34 277.912 217.847 277.784 218.274 277.528C218.7 277.261 219.01 276.888 219.202 276.408V275.224H216.834C215.532 275.224 214.882 275.661 214.882 276.536C214.882 276.963 215.047 277.299 215.378 277.544C215.708 277.789 216.167 277.912 216.754 277.912ZM223.504 270.52H225.04V274.12H229.872V270.52H231.408V279H229.872V275.448H225.04V279H223.504V270.52ZM234.394 270.52H235.93V276.696L241.13 270.52H242.522V279H240.986V272.824L235.802 279H234.394V270.52ZM253.168 274.808C253.168 274.925 253.157 275.08 253.136 275.272H246.256C246.352 276.019 246.677 276.621 247.232 277.08C247.797 277.528 248.496 277.752 249.328 277.752C250.341 277.752 251.157 277.411 251.776 276.728L252.624 277.72C252.24 278.168 251.76 278.509 251.184 278.744C250.618 278.979 249.984 279.096 249.28 279.096C248.384 279.096 247.589 278.915 246.896 278.552C246.202 278.179 245.664 277.661 245.28 277C244.906 276.339 244.72 275.592 244.72 274.76C244.72 273.939 244.901 273.197 245.264 272.536C245.637 271.875 246.144 271.363 246.784 271C247.434 270.627 248.165 270.44 248.976 270.44C249.786 270.44 250.506 270.627 251.136 271C251.776 271.363 252.272 271.875 252.624 272.536C252.986 273.197 253.168 273.955 253.168 274.808ZM248.976 271.736C248.24 271.736 247.621 271.96 247.12 272.408C246.629 272.856 246.341 273.443 246.256 274.168H251.696C251.61 273.453 251.317 272.872 250.816 272.424C250.325 271.965 249.712 271.736 248.976 271.736ZM36.184 303.096C35.32 303.096 34.5467 302.909 33.864 302.536C33.192 302.163 32.664 301.651 32.28 301C31.896 300.339 31.704 299.592 31.704 298.76C31.704 297.928 31.896 297.187 32.28 296.536C32.664 295.875 33.192 295.363 33.864 295C34.5467 294.627 35.32 294.44 36.184 294.44C36.952 294.44 37.6347 294.595 38.232 294.904C38.84 295.213 39.3093 295.661 39.64 296.248L38.472 297C38.2053 296.595 37.8747 296.291 37.48 296.088C37.0853 295.885 36.648 295.784 36.168 295.784C35.6133 295.784 35.112 295.907 34.664 296.152C34.2267 296.397 33.88 296.749 33.624 297.208C33.3787 297.656 33.256 298.173 33.256 298.76C33.256 299.357 33.3787 299.885 33.624 300.344C33.88 300.792 34.2267 301.139 34.664 301.384C35.112 301.629 35.6133 301.752 36.168 301.752C36.648 301.752 37.0853 301.651 37.48 301.448C37.8747 301.245 38.2053 300.941 38.472 300.536L39.64 301.272C39.3093 301.859 38.84 302.312 38.232 302.632C37.6347 302.941 36.952 303.096 36.184 303.096ZM53.7815 294.52V303H52.2455V295.864H47.4615V303H45.9255V294.52H53.7815ZM60.4496 303.096C59.5856 303.096 58.8123 302.909 58.1296 302.536C57.4576 302.163 56.9296 301.651 56.5456 301C56.1616 300.339 55.9696 299.592 55.9696 298.76C55.9696 297.928 56.1616 297.187 56.5456 296.536C56.9296 295.875 57.4576 295.363 58.1296 295C58.8123 294.627 59.5856 294.44 60.4496 294.44C61.2176 294.44 61.9003 294.595 62.4976 294.904C63.1056 295.213 63.575 295.661 63.9056 296.248L62.7376 297C62.471 296.595 62.1403 296.291 61.7456 296.088C61.351 295.885 60.9136 295.784 60.4336 295.784C59.879 295.784 59.3776 295.907 58.9296 296.152C58.4923 296.397 58.1456 296.749 57.8896 297.208C57.6443 297.656 57.5216 298.173 57.5216 298.76C57.5216 299.357 57.6443 299.885 57.8896 300.344C58.1456 300.792 58.4923 301.139 58.9296 301.384C59.3776 301.629 59.879 301.752 60.4336 301.752C60.9136 301.752 61.351 301.651 61.7456 301.448C62.1403 301.245 62.471 300.941 62.7376 300.536L63.9056 301.272C63.575 301.859 63.1056 302.312 62.4976 302.632C61.9003 302.941 61.2176 303.096 60.4496 303.096ZM65.8943 294.52H67.4303V300.696L72.6302 294.52H74.0223V303H72.4862V296.824L67.3023 303H65.8943V294.52ZM82.2996 303L79.8516 299.752L77.3716 303H75.6596L79.0036 298.664L75.8196 294.52H77.5316L79.8676 297.576L82.1876 294.52H83.8676L80.6676 298.664L84.0436 303H82.2996ZM89.0106 303.096C88.168 303.096 87.4106 302.909 86.7386 302.536C86.0666 302.163 85.5386 301.651 85.1546 301C84.7813 300.339 84.5946 299.592 84.5946 298.76C84.5946 297.928 84.7813 297.187 85.1546 296.536C85.5386 295.875 86.0666 295.363 86.7386 295C87.4106 294.627 88.168 294.44 89.0106 294.44C89.8533 294.44 90.6053 294.627 91.2666 295C91.9386 295.363 92.4613 295.875 92.8346 296.536C93.2186 297.187 93.4106 297.928 93.4106 298.76C93.4106 299.592 93.2186 300.339 92.8346 301C92.4613 301.651 91.9386 302.163 91.2666 302.536C90.6053 302.909 89.8533 303.096 89.0106 303.096ZM89.0106 301.752C89.5546 301.752 90.04 301.629 90.4666 301.384C90.904 301.128 91.2453 300.776 91.4906 300.328C91.736 299.869 91.8586 299.347 91.8586 298.76C91.8586 298.173 91.736 297.656 91.4906 297.208C91.2453 296.749 90.904 296.397 90.4666 296.152C90.04 295.907 89.5546 295.784 89.0106 295.784C88.4666 295.784 87.976 295.907 87.5386 296.152C87.112 296.397 86.7706 296.749 86.5146 297.208C86.2693 297.656 86.1466 298.173 86.1466 298.76C86.1466 299.347 86.2693 299.869 86.5146 300.328C86.7706 300.776 87.112 301.128 87.5386 301.384C87.976 301.629 88.4666 301.752 89.0106 301.752ZM102.846 294.52V303H101.31V295.864H97.6621L97.5661 297.752C97.5128 298.893 97.4115 299.848 97.2621 300.616C97.1128 301.373 96.8675 301.981 96.5261 302.44C96.1848 302.899 95.7101 303.128 95.1021 303.128C94.8248 303.128 94.5101 303.08 94.1581 302.984L94.2541 301.688C94.3928 301.72 94.5208 301.736 94.6381 301.736C95.0648 301.736 95.3848 301.549 95.5981 301.176C95.8115 300.803 95.9501 300.36 96.0141 299.848C96.0781 299.336 96.1368 298.605 96.1901 297.656L96.3341 294.52H102.846ZM109.448 303.096C108.605 303.096 107.848 302.909 107.176 302.536C106.504 302.163 105.976 301.651 105.592 301C105.219 300.339 105.032 299.592 105.032 298.76C105.032 297.928 105.219 297.187 105.592 296.536C105.976 295.875 106.504 295.363 107.176 295C107.848 294.627 108.605 294.44 109.448 294.44C110.291 294.44 111.043 294.627 111.704 295C112.376 295.363 112.899 295.875 113.272 296.536C113.656 297.187 113.848 297.928 113.848 298.76C113.848 299.592 113.656 300.339 113.272 301C112.899 301.651 112.376 302.163 111.704 302.536C111.043 302.909 110.291 303.096 109.448 303.096ZM109.448 301.752C109.992 301.752 110.477 301.629 110.904 301.384C111.341 301.128 111.683 300.776 111.928 300.328C112.173 299.869 112.296 299.347 112.296 298.76C112.296 298.173 112.173 297.656 111.928 297.208C111.683 296.749 111.341 296.397 110.904 296.152C110.477 295.907 109.992 295.784 109.448 295.784C108.904 295.784 108.413 295.907 107.976 296.152C107.549 296.397 107.208 296.749 106.952 297.208C106.707 297.656 106.584 298.173 106.584 298.76C106.584 299.347 106.707 299.869 106.952 300.328C107.208 300.776 107.549 301.128 107.976 301.384C108.413 301.629 108.904 301.752 109.448 301.752ZM122.306 295.864H117.602V303H116.066V294.52H122.306V295.864ZM127.136 303.096C126.293 303.096 125.536 302.909 124.864 302.536C124.192 302.163 123.664 301.651 123.28 301C122.906 300.339 122.72 299.592 122.72 298.76C122.72 297.928 122.906 297.187 123.28 296.536C123.664 295.875 124.192 295.363 124.864 295C125.536 294.627 126.293 294.44 127.136 294.44C127.978 294.44 128.73 294.627 129.392 295C130.064 295.363 130.586 295.875 130.96 296.536C131.344 297.187 131.536 297.928 131.536 298.76C131.536 299.592 131.344 300.339 130.96 301C130.586 301.651 130.064 302.163 129.392 302.536C128.73 302.909 127.978 303.096 127.136 303.096ZM127.136 301.752C127.68 301.752 128.165 301.629 128.592 301.384C129.029 301.128 129.37 300.776 129.616 300.328C129.861 299.869 129.984 299.347 129.984 298.76C129.984 298.173 129.861 297.656 129.616 297.208C129.37 296.749 129.029 296.397 128.592 296.152C128.165 295.907 127.68 295.784 127.136 295.784C126.592 295.784 126.101 295.907 125.664 296.152C125.237 296.397 124.896 296.749 124.64 297.208C124.394 297.656 124.272 298.173 124.272 298.76C124.272 299.347 124.394 299.869 124.64 300.328C124.896 300.776 125.237 301.128 125.664 301.384C126.101 301.629 126.592 301.752 127.136 301.752ZM143.53 294.52V303H142.138V296.808L138.97 302.04H138.298L135.162 296.792V303H133.754V294.52H135.338L138.666 300.248L142.09 294.52H143.53ZM150.816 294.52H152.352V300.696L157.552 294.52H158.944V303H157.408V296.824L152.224 303H150.816V294.52ZM40.344 318.52V327H38.808V319.864H34.024V327H32.488V318.52H40.344ZM47.8121 318.44C48.6335 318.44 49.3695 318.621 50.0201 318.984C50.6708 319.347 51.1775 319.853 51.5401 320.504C51.9135 321.155 52.1001 321.907 52.1001 322.76C52.1001 323.613 51.9135 324.371 51.5401 325.032C51.1775 325.683 50.6708 326.189 50.0201 326.552C49.3695 326.915 48.6335 327.096 47.8121 327.096C47.2041 327.096 46.6441 326.979 46.1321 326.744C45.6308 326.509 45.2041 326.168 44.8521 325.72V330.104H43.3161V318.52H44.7881V319.864C45.1295 319.395 45.5615 319.043 46.0841 318.808C46.6068 318.563 47.1828 318.44 47.8121 318.44ZM47.6841 325.752C48.2281 325.752 48.7135 325.629 49.1401 325.384C49.5775 325.128 49.9188 324.776 50.1641 324.328C50.4201 323.869 50.5481 323.347 50.5481 322.76C50.5481 322.173 50.4201 321.656 50.1641 321.208C49.9188 320.749 49.5775 320.397 49.1401 320.152C48.7135 319.907 48.2281 319.784 47.6841 319.784C47.1508 319.784 46.6655 319.912 46.2281 320.168C45.8015 320.413 45.4601 320.76 45.2041 321.208C44.9588 321.656 44.8361 322.173 44.8361 322.76C44.8361 323.347 44.9588 323.869 45.2041 324.328C45.4495 324.776 45.7908 325.128 46.2281 325.384C46.6655 325.629 47.1508 325.752 47.6841 325.752ZM61.9958 322.808C61.9958 322.925 61.9851 323.08 61.9638 323.272H55.0838C55.1798 324.019 55.5051 324.621 56.0598 325.08C56.6251 325.528 57.3238 325.752 58.1558 325.752C59.1691 325.752 59.9851 325.411 60.6038 324.728L61.4518 325.72C61.0678 326.168 60.5878 326.509 60.0118 326.744C59.4464 326.979 58.8118 327.096 58.1078 327.096C57.2118 327.096 56.4171 326.915 55.7238 326.552C55.0304 326.179 54.4918 325.661 54.1078 325C53.7344 324.339 53.5478 323.592 53.5478 322.76C53.5478 321.939 53.7291 321.197 54.0918 320.536C54.4651 319.875 54.9718 319.363 55.6118 319C56.2624 318.627 56.9931 318.44 57.8038 318.44C58.6144 318.44 59.3344 318.627 59.9638 319C60.6038 319.363 61.0998 319.875 61.4518 320.536C61.8144 321.197 61.9958 321.955 61.9958 322.808ZM57.8038 319.736C57.0678 319.736 56.4491 319.96 55.9478 320.408C55.4571 320.856 55.1691 321.443 55.0838 322.168H60.5238C60.4384 321.453 60.1451 320.872 59.6438 320.424C59.1531 319.965 58.5398 319.736 57.8038 319.736ZM72.2346 318.52V327H70.6986V319.864H65.9146V327H64.3786V318.52H72.2346ZM78.8388 327.096C77.9961 327.096 77.2388 326.909 76.5668 326.536C75.8948 326.163 75.3668 325.651 74.9828 325C74.6094 324.339 74.4228 323.592 74.4228 322.76C74.4228 321.928 74.6094 321.187 74.9828 320.536C75.3668 319.875 75.8948 319.363 76.5668 319C77.2388 318.627 77.9961 318.44 78.8388 318.44C79.6814 318.44 80.4334 318.627 81.0948 319C81.7668 319.363 82.2894 319.875 82.6628 320.536C83.0468 321.187 83.2388 321.928 83.2388 322.76C83.2388 323.592 83.0468 324.339 82.6628 325C82.2894 325.651 81.7668 326.163 81.0948 326.536C80.4334 326.909 79.6814 327.096 78.8388 327.096ZM78.8388 325.752C79.3828 325.752 79.8681 325.629 80.2948 325.384C80.7321 325.128 81.0734 324.776 81.3188 324.328C81.5641 323.869 81.6868 323.347 81.6868 322.76C81.6868 322.173 81.5641 321.656 81.3188 321.208C81.0734 320.749 80.7321 320.397 80.2948 320.152C79.8681 319.907 79.3828 319.784 78.8388 319.784C78.2948 319.784 77.8041 319.907 77.3668 320.152C76.9401 320.397 76.5988 320.749 76.3428 321.208C76.0974 321.656 75.9748 322.173 75.9748 322.76C75.9748 323.347 76.0974 323.869 76.3428 324.328C76.5988 324.776 76.9401 325.128 77.3668 325.384C77.8041 325.629 78.2948 325.752 78.8388 325.752ZM94.0183 325.656V328.968H92.5783V327H85.4903V328.968H84.0343V325.656H84.4823C85.0263 325.624 85.3996 325.24 85.6023 324.504C85.8049 323.768 85.9436 322.728 86.0182 321.384L86.1463 318.52H92.7222V325.656H94.0183ZM87.4263 321.496C87.3836 322.563 87.2929 323.448 87.1543 324.152C87.0263 324.845 86.7863 325.347 86.4343 325.656H91.1863V319.864H87.5063L87.4263 321.496ZM99.0433 318.44C100.217 318.44 101.113 318.728 101.731 319.304C102.361 319.88 102.675 320.739 102.675 321.88V327H101.219V325.88C100.963 326.275 100.595 326.579 100.115 326.792C99.6459 326.995 99.0859 327.096 98.4353 327.096C97.4859 327.096 96.7233 326.867 96.1473 326.408C95.5819 325.949 95.2993 325.347 95.2993 324.6C95.2993 323.853 95.5713 323.256 96.1153 322.808C96.6593 322.349 97.5233 322.12 98.7073 322.12H101.139V321.816C101.139 321.155 100.947 320.648 100.563 320.296C100.179 319.944 99.6139 319.768 98.8673 319.768C98.3659 319.768 97.8753 319.853 97.3953 320.024C96.9153 320.184 96.5099 320.403 96.1793 320.68L95.5393 319.528C95.9766 319.176 96.4993 318.909 97.1073 318.728C97.7153 318.536 98.3606 318.44 99.0433 318.44ZM98.6913 325.912C99.2779 325.912 99.7846 325.784 100.211 325.528C100.638 325.261 100.947 324.888 101.139 324.408V323.224H98.7713C97.4699 323.224 96.8193 323.661 96.8193 324.536C96.8193 324.963 96.9846 325.299 97.3153 325.544C97.6459 325.789 98.1046 325.912 98.6913 325.912ZM111.217 322.6C112.316 322.877 112.865 323.565 112.865 324.664C112.865 325.411 112.582 325.987 112.017 326.392C111.462 326.797 110.63 327 109.521 327H105.441V318.52H109.377C110.38 318.52 111.164 318.712 111.729 319.096C112.294 319.469 112.577 320.003 112.577 320.696C112.577 321.144 112.454 321.533 112.209 321.864C111.974 322.184 111.644 322.429 111.217 322.6ZM106.945 322.168H109.249C109.836 322.168 110.278 322.061 110.577 321.848C110.886 321.635 111.041 321.325 111.041 320.92C111.041 320.109 110.444 319.704 109.249 319.704H106.945V322.168ZM109.409 325.816C110.049 325.816 110.529 325.715 110.849 325.512C111.169 325.309 111.329 324.995 111.329 324.568C111.329 324.131 111.18 323.805 110.881 323.592C110.593 323.379 110.134 323.272 109.505 323.272H106.945V325.816H109.409ZM118.293 318.44C119.467 318.44 120.363 318.728 120.981 319.304C121.611 319.88 121.925 320.739 121.925 321.88V327H120.469V325.88C120.213 326.275 119.845 326.579 119.365 326.792C118.896 326.995 118.336 327.096 117.685 327.096C116.736 327.096 115.973 326.867 115.397 326.408C114.832 325.949 114.549 325.347 114.549 324.6C114.549 323.853 114.821 323.256 115.365 322.808C115.909 322.349 116.773 322.12 117.957 322.12H120.389V321.816C120.389 321.155 120.197 320.648 119.813 320.296C119.429 319.944 118.864 319.768 118.117 319.768C117.616 319.768 117.125 319.853 116.645 320.024C116.165 320.184 115.76 320.403 115.429 320.68L114.789 319.528C115.227 319.176 115.749 318.909 116.357 318.728C116.965 318.536 117.611 318.44 118.293 318.44ZM117.941 325.912C118.528 325.912 119.035 325.784 119.461 325.528C119.888 325.261 120.197 324.888 120.389 324.408V323.224H118.021C116.72 323.224 116.069 323.661 116.069 324.536C116.069 324.963 116.235 325.299 116.565 325.544C116.896 325.789 117.355 325.912 117.941 325.912ZM131.011 319.864H127.907V327H126.371V319.864H123.267V318.52H131.011V319.864ZM139.871 322.808C139.871 322.925 139.86 323.08 139.839 323.272H132.959C133.055 324.019 133.38 324.621 133.935 325.08C134.5 325.528 135.199 325.752 136.031 325.752C137.044 325.752 137.86 325.411 138.479 324.728L139.327 325.72C138.943 326.168 138.463 326.509 137.887 326.744C137.321 326.979 136.687 327.096 135.983 327.096C135.087 327.096 134.292 326.915 133.599 326.552C132.905 326.179 132.367 325.661 131.983 325C131.609 324.339 131.423 323.592 131.423 322.76C131.423 321.939 131.604 321.197 131.967 320.536C132.34 319.875 132.847 319.363 133.487 319C134.137 318.627 134.868 318.44 135.679 318.44C136.489 318.44 137.209 318.627 137.839 319C138.479 319.363 138.975 319.875 139.327 320.536C139.689 321.197 139.871 321.955 139.871 322.808ZM135.679 319.736C134.943 319.736 134.324 319.96 133.823 320.408C133.332 320.856 133.044 321.443 132.959 322.168H138.399C138.313 321.453 138.02 320.872 137.519 320.424C137.028 319.965 136.415 319.736 135.679 319.736ZM149.393 318.52V327H147.857V319.864H144.209L144.113 321.752C144.06 322.893 143.958 323.848 143.809 324.616C143.66 325.373 143.414 325.981 143.073 326.44C142.732 326.899 142.257 327.128 141.649 327.128C141.372 327.128 141.057 327.08 140.705 326.984L140.801 325.688C140.94 325.72 141.068 325.736 141.185 325.736C141.612 325.736 141.932 325.549 142.145 325.176C142.358 324.803 142.497 324.36 142.561 323.848C142.625 323.336 142.684 322.605 142.737 321.656L142.881 318.52H149.393ZM160.027 322.808C160.027 322.925 160.016 323.08 159.995 323.272H153.115C153.211 324.019 153.536 324.621 154.091 325.08C154.656 325.528 155.355 325.752 156.187 325.752C157.2 325.752 158.016 325.411 158.635 324.728L159.483 325.72C159.099 326.168 158.619 326.509 158.043 326.744C157.478 326.979 156.843 327.096 156.139 327.096C155.243 327.096 154.448 326.915 153.755 326.552C153.062 326.179 152.523 325.661 152.139 325C151.766 324.339 151.579 323.592 151.579 322.76C151.579 321.939 151.76 321.197 152.123 320.536C152.496 319.875 153.003 319.363 153.643 319C154.294 318.627 155.024 318.44 155.835 318.44C156.646 318.44 157.366 318.627 157.995 319C158.635 319.363 159.131 319.875 159.483 320.536C159.846 321.197 160.027 321.955 160.027 322.808ZM155.835 319.736C155.099 319.736 154.48 319.96 153.979 320.408C153.488 320.856 153.2 321.443 153.115 322.168H158.555C158.47 321.453 158.176 320.872 157.675 320.424C157.184 319.965 156.571 319.736 155.835 319.736ZM172.186 318.52V327H170.794V320.808L167.626 326.04H166.954L163.818 320.792V327H162.41V318.52H163.994L167.322 324.248L170.746 318.52H172.186Z" fill="white"/>
<defs>
<linearGradient id="paint0_linear_460_472" x1="3.25286e-06" y1="181.621" x2="300" y2="181.621" gradientUnits="userSpaceOnUse">
<stop stop-color="#FB4516"/>
<stop offset="1" stop-color="#FB4516" stop-opacity="0.75"/>
</linearGradient>
</defs>
</svg>
