<svg width="300" height="361" viewBox="0 0 300 361" fill="none" xmlns="http://www.w3.org/2000/svg">
<rect width="300" height="361" rx="24" fill="url(#paint0_linear_460_473)"/>
<path opacity="0.35" d="M67.392 141.536C59.968 141.536 53.3547 139.701 47.552 136.032C41.7493 132.363 37.184 127.072 33.856 120.16C30.6133 113.163 28.992 104.843 28.992 95.2C28.992 85.5573 30.6133 77.28 33.856 70.368C37.184 63.3707 41.7493 58.0373 47.552 54.368C53.3547 50.6987 59.968 48.864 67.392 48.864C74.816 48.864 81.4293 50.6987 87.232 54.368C93.0347 58.0373 97.5573 63.3707 100.8 70.368C104.128 77.28 105.792 85.5573 105.792 95.2C105.792 104.843 104.128 113.163 100.8 120.16C97.5573 127.072 93.0347 132.363 87.232 136.032C81.4293 139.701 74.816 141.536 67.392 141.536ZM67.392 124C72.8533 124 77.12 121.653 80.192 116.96C83.3493 112.267 84.928 105.013 84.928 95.2C84.928 85.3867 83.3493 78.1333 80.192 73.44C77.12 68.7467 72.8533 66.4 67.392 66.4C62.016 66.4 57.7493 68.7467 54.592 73.44C51.52 78.1333 49.984 85.3867 49.984 95.2C49.984 105.013 51.52 112.267 54.592 116.96C57.7493 121.653 62.016 124 67.392 124ZM182.061 123.104V140H114.349V126.56L148.909 93.92C152.578 90.4213 155.053 87.4347 156.333 84.96C157.613 82.4 158.253 79.8827 158.253 77.408C158.253 73.824 157.016 71.0933 154.541 69.216C152.152 67.2533 148.61 66.272 143.917 66.272C139.992 66.272 136.45 67.04 133.293 68.576C130.136 70.0267 127.49 72.2453 125.357 75.232L110.253 65.504C113.752 60.2987 118.573 56.2453 124.717 53.344C130.861 50.3573 137.901 48.864 145.837 48.864C152.493 48.864 158.296 49.9733 163.245 52.192C168.28 54.3253 172.162 57.3973 174.893 61.408C177.709 65.3333 179.117 69.984 179.117 75.36C179.117 80.224 178.093 84.7893 176.045 89.056C173.997 93.3227 170.029 98.1867 164.141 103.648L143.533 123.104H182.061Z" fill="white"/>
<path d="M42.128 280L42.112 271.84L38.064 278.64H37.328L33.28 271.888V280H31.744V268.8H33.056L37.728 276.672L42.336 268.8H43.648L43.664 280H42.128ZM50.7183 274.4C51.7849 274.411 52.6009 274.656 53.1663 275.136C53.7316 275.616 54.0143 276.293 54.0143 277.168C54.0143 278.085 53.7049 278.795 53.0863 279.296C52.4783 279.787 51.6036 280.027 50.4623 280.016L46.8943 280V271.52H48.4303V274.384L50.7183 274.4ZM55.2783 271.52H56.8143V280H55.2783V271.52ZM50.3503 278.848C51.0436 278.859 51.5663 278.72 51.9183 278.432C52.2809 278.144 52.4623 277.717 52.4623 277.152C52.4623 276.597 52.2863 276.192 51.9343 275.936C51.5823 275.68 51.0543 275.547 50.3503 275.536L48.4303 275.504V278.832L50.3503 278.848ZM71.6654 271.52L67.5534 280.848C67.1907 281.712 66.764 282.32 66.2734 282.672C65.7934 283.024 65.212 283.2 64.5294 283.2C64.1134 283.2 63.708 283.131 63.3134 282.992C62.9294 282.864 62.6094 282.672 62.3534 282.416L63.0094 281.264C63.4467 281.68 63.9534 281.888 64.5294 281.888C64.9027 281.888 65.212 281.787 65.4574 281.584C65.7134 281.392 65.9427 281.056 66.1454 280.576L66.4174 279.984L62.6734 271.52H64.2734L67.2334 278.304L70.1614 271.52H71.6654ZM77.6269 275.584C78.1922 275.733 78.6295 275.973 78.9389 276.304C79.2482 276.635 79.4029 277.045 79.4029 277.536C79.4029 278.037 79.2322 278.485 78.8909 278.88C78.5495 279.264 78.0749 279.568 77.4669 279.792C76.8695 280.005 76.1975 280.112 75.4509 280.112C74.8215 280.112 74.2029 280.032 73.5949 279.872C72.9975 279.701 72.4642 279.461 71.9949 279.152L72.4589 277.984C72.8642 278.24 73.3282 278.443 73.8509 278.592C74.3735 278.731 74.9015 278.8 75.4349 278.8C76.1602 278.8 76.7362 278.677 77.1629 278.432C77.6002 278.176 77.8189 277.835 77.8189 277.408C77.8189 277.013 77.6429 276.709 77.2909 276.496C76.9495 276.283 76.4642 276.176 75.8349 276.176H74.2829V275.072H75.7229C76.2989 275.072 76.7522 274.971 77.0829 274.768C77.4135 274.565 77.5789 274.288 77.5789 273.936C77.5789 273.552 77.3815 273.253 76.9869 273.04C76.6029 272.827 76.0802 272.72 75.4189 272.72C74.5762 272.72 73.6855 272.939 72.7469 273.376L72.3309 272.192C73.3655 271.669 74.4482 271.408 75.5789 271.408C76.2615 271.408 76.8749 271.504 77.4189 271.696C77.9629 271.888 78.3895 272.16 78.6989 272.512C79.0082 272.864 79.1629 273.264 79.1629 273.712C79.1629 274.128 79.0242 274.501 78.7469 274.832C78.4695 275.163 78.0962 275.413 77.6269 275.584ZM81.738 271.52H83.274V275.12H88.106V271.52H89.642V280H88.106V276.448H83.274V280H81.738V271.52ZM95.6526 271.44C96.826 271.44 97.722 271.728 98.3406 272.304C98.97 272.88 99.2846 273.739 99.2846 274.88V280H97.8286V278.88C97.5726 279.275 97.2046 279.579 96.7246 279.792C96.2553 279.995 95.6953 280.096 95.0446 280.096C94.0953 280.096 93.3326 279.867 92.7566 279.408C92.1913 278.949 91.9086 278.347 91.9086 277.6C91.9086 276.853 92.1806 276.256 92.7246 275.808C93.2686 275.349 94.1326 275.12 95.3166 275.12H97.7486V274.816C97.7486 274.155 97.5566 273.648 97.1726 273.296C96.7886 272.944 96.2233 272.768 95.4766 272.768C94.9753 272.768 94.4846 272.853 94.0046 273.024C93.5246 273.184 93.1193 273.403 92.7886 273.68L92.1486 272.528C92.586 272.176 93.1086 271.909 93.7166 271.728C94.3246 271.536 94.97 271.44 95.6526 271.44ZM95.3006 278.912C95.8873 278.912 96.394 278.784 96.8206 278.528C97.2473 278.261 97.5566 277.888 97.7486 277.408V276.224H95.3806C94.0793 276.224 93.4286 276.661 93.4286 277.536C93.4286 277.963 93.594 278.299 93.9246 278.544C94.2553 278.789 94.714 278.912 95.3006 278.912ZM109.715 275.808C109.715 275.925 109.704 276.08 109.683 276.272H102.803C102.899 277.019 103.224 277.621 103.779 278.08C104.344 278.528 105.043 278.752 105.875 278.752C106.888 278.752 107.704 278.411 108.323 277.728L109.171 278.72C108.787 279.168 108.307 279.509 107.731 279.744C107.165 279.979 106.531 280.096 105.827 280.096C104.931 280.096 104.136 279.915 103.443 279.552C102.749 279.179 102.211 278.661 101.827 278C101.453 277.339 101.267 276.592 101.267 275.76C101.267 274.939 101.448 274.197 101.811 273.536C102.184 272.875 102.691 272.363 103.331 272C103.981 271.627 104.712 271.44 105.523 271.44C106.333 271.44 107.053 271.627 107.683 272C108.323 272.363 108.819 272.875 109.171 273.536C109.533 274.197 109.715 274.955 109.715 275.808ZM105.523 272.736C104.787 272.736 104.168 272.96 103.667 273.408C103.176 273.856 102.888 274.443 102.803 275.168H108.243C108.157 274.453 107.864 273.872 107.363 273.424C106.872 272.965 106.259 272.736 105.523 272.736ZM121.873 271.52V280H120.481V273.808L117.313 279.04H116.641L113.505 273.792V280H112.097V271.52H113.681L117.009 277.248L120.433 271.52H121.873ZM136.824 275.808C136.824 275.925 136.813 276.08 136.792 276.272H129.912C130.008 277.019 130.333 277.621 130.888 278.08C131.453 278.528 132.152 278.752 132.984 278.752C133.997 278.752 134.813 278.411 135.432 277.728L136.28 278.72C135.896 279.168 135.416 279.509 134.84 279.744C134.275 279.979 133.64 280.096 132.936 280.096C132.04 280.096 131.245 279.915 130.552 279.552C129.859 279.179 129.32 278.661 128.936 278C128.563 277.339 128.376 276.592 128.376 275.76C128.376 274.939 128.557 274.197 128.92 273.536C129.293 272.875 129.8 272.363 130.44 272C131.091 271.627 131.821 271.44 132.632 271.44C133.443 271.44 134.163 271.627 134.792 272C135.432 272.363 135.928 272.875 136.28 273.536C136.643 274.197 136.824 274.955 136.824 275.808ZM132.632 272.736C131.896 272.736 131.277 272.96 130.776 273.408C130.285 273.856 129.997 274.443 129.912 275.168H135.352C135.267 274.453 134.973 273.872 134.472 273.424C133.981 272.965 133.368 272.736 132.632 272.736ZM145.447 272.864H140.743V280H139.207V271.52H145.447V272.864ZM150.276 280.096C149.434 280.096 148.676 279.909 148.004 279.536C147.332 279.163 146.804 278.651 146.42 278C146.047 277.339 145.86 276.592 145.86 275.76C145.86 274.928 146.047 274.187 146.42 273.536C146.804 272.875 147.332 272.363 148.004 272C148.676 271.627 149.434 271.44 150.276 271.44C151.119 271.44 151.871 271.627 152.532 272C153.204 272.363 153.727 272.875 154.1 273.536C154.484 274.187 154.676 274.928 154.676 275.76C154.676 276.592 154.484 277.339 154.1 278C153.727 278.651 153.204 279.163 152.532 279.536C151.871 279.909 151.119 280.096 150.276 280.096ZM150.276 278.752C150.82 278.752 151.306 278.629 151.732 278.384C152.17 278.128 152.511 277.776 152.756 277.328C153.002 276.869 153.124 276.347 153.124 275.76C153.124 275.173 153.002 274.656 152.756 274.208C152.511 273.749 152.17 273.397 151.732 273.152C151.306 272.907 150.82 272.784 150.276 272.784C149.732 272.784 149.242 272.907 148.804 273.152C148.378 273.397 148.036 273.749 147.78 274.208C147.535 274.656 147.412 275.173 147.412 275.76C147.412 276.347 147.535 276.869 147.78 277.328C148.036 277.776 148.378 278.128 148.804 278.384C149.242 278.629 149.732 278.752 150.276 278.752ZM161.191 271.52H162.727V275.12H167.559V271.52H169.095V280H167.559V276.448H162.727V280H161.191V271.52ZM175.106 271.44C176.279 271.44 177.175 271.728 177.794 272.304C178.423 272.88 178.738 273.739 178.738 274.88V280H177.282V278.88C177.026 279.275 176.658 279.579 176.178 279.792C175.708 279.995 175.148 280.096 174.498 280.096C173.548 280.096 172.786 279.867 172.21 279.408C171.644 278.949 171.362 278.347 171.362 277.6C171.362 276.853 171.634 276.256 172.178 275.808C172.722 275.349 173.586 275.12 174.77 275.12H177.202V274.816C177.202 274.155 177.01 273.648 176.626 273.296C176.242 272.944 175.676 272.768 174.93 272.768C174.428 272.768 173.938 272.853 173.458 273.024C172.978 273.184 172.572 273.403 172.242 273.68L171.602 272.528C172.039 272.176 172.562 271.909 173.17 271.728C173.778 271.536 174.423 271.44 175.106 271.44ZM174.754 278.912C175.34 278.912 175.847 278.784 176.274 278.528C176.7 278.261 177.01 277.888 177.202 277.408V276.224H174.834C173.532 276.224 172.882 276.661 172.882 277.536C172.882 277.963 173.047 278.299 173.378 278.544C173.708 278.789 174.167 278.912 174.754 278.912ZM185.2 280.096C184.336 280.096 183.562 279.909 182.88 279.536C182.208 279.163 181.68 278.651 181.296 278C180.912 277.339 180.72 276.592 180.72 275.76C180.72 274.928 180.912 274.187 181.296 273.536C181.68 272.875 182.208 272.363 182.88 272C183.562 271.627 184.336 271.44 185.2 271.44C185.968 271.44 186.65 271.595 187.248 271.904C187.856 272.213 188.325 272.661 188.656 273.248L187.488 274C187.221 273.595 186.89 273.291 186.496 273.088C186.101 272.885 185.664 272.784 185.184 272.784C184.629 272.784 184.128 272.907 183.68 273.152C183.242 273.397 182.896 273.749 182.64 274.208C182.394 274.656 182.272 275.173 182.272 275.76C182.272 276.357 182.394 276.885 182.64 277.344C182.896 277.792 183.242 278.139 183.68 278.384C184.128 278.629 184.629 278.752 185.184 278.752C185.664 278.752 186.101 278.651 186.496 278.448C186.89 278.245 187.221 277.941 187.488 277.536L188.656 278.272C188.325 278.859 187.856 279.312 187.248 279.632C186.65 279.941 185.968 280.096 185.2 280.096ZM196.855 272.864H193.751V280H192.215V272.864H189.111V271.52H196.855V272.864ZM201.683 280.096C200.84 280.096 200.083 279.909 199.411 279.536C198.739 279.163 198.211 278.651 197.827 278C197.453 277.339 197.267 276.592 197.267 275.76C197.267 274.928 197.453 274.187 197.827 273.536C198.211 272.875 198.739 272.363 199.411 272C200.083 271.627 200.84 271.44 201.683 271.44C202.525 271.44 203.277 271.627 203.939 272C204.611 272.363 205.133 272.875 205.507 273.536C205.891 274.187 206.083 274.928 206.083 275.76C206.083 276.592 205.891 277.339 205.507 278C205.133 278.651 204.611 279.163 203.939 279.536C203.277 279.909 202.525 280.096 201.683 280.096ZM201.683 278.752C202.227 278.752 202.712 278.629 203.139 278.384C203.576 278.128 203.917 277.776 204.163 277.328C204.408 276.869 204.531 276.347 204.531 275.76C204.531 275.173 204.408 274.656 204.163 274.208C203.917 273.749 203.576 273.397 203.139 273.152C202.712 272.907 202.227 272.784 201.683 272.784C201.139 272.784 200.648 272.907 200.211 273.152C199.784 273.397 199.443 273.749 199.187 274.208C198.941 274.656 198.819 275.173 198.819 275.76C198.819 276.347 198.941 276.869 199.187 277.328C199.443 277.776 199.784 278.128 200.211 278.384C200.648 278.629 201.139 278.752 201.683 278.752ZM214.819 271.52V280H213.443V277.312H210.979H210.803L208.947 280H207.299L209.363 277.104C208.723 276.912 208.233 276.597 207.891 276.16C207.55 275.712 207.379 275.157 207.379 274.496C207.379 273.525 207.71 272.789 208.371 272.288C209.033 271.776 209.945 271.52 211.107 271.52H214.819ZM208.947 274.544C208.947 275.109 209.123 275.531 209.475 275.808C209.838 276.075 210.377 276.208 211.091 276.208H213.443V272.864H211.155C209.683 272.864 208.947 273.424 208.947 274.544ZM229.896 271.52V280H217.816V271.52H219.352V278.656H223.096V271.52H224.632V278.656H228.36V271.52H229.896ZM231.16 278.656V281.808H229.72V280H228.296V278.656H231.16ZM232.879 271.52H234.415V277.696L239.615 271.52H241.007V280H239.471V273.824L234.287 280H232.879V271.52ZM251.652 275.808C251.652 275.925 251.641 276.08 251.62 276.272H244.74C244.836 277.019 245.161 277.621 245.716 278.08C246.281 278.528 246.98 278.752 247.812 278.752C248.825 278.752 249.641 278.411 250.26 277.728L251.108 278.72C250.724 279.168 250.244 279.509 249.668 279.744C249.103 279.979 248.468 280.096 247.764 280.096C246.868 280.096 246.073 279.915 245.38 279.552C244.687 279.179 244.148 278.661 243.764 278C243.391 277.339 243.204 276.592 243.204 275.76C243.204 274.939 243.385 274.197 243.748 273.536C244.121 272.875 244.628 272.363 245.268 272C245.919 271.627 246.649 271.44 247.46 271.44C248.271 271.44 248.991 271.627 249.62 272C250.26 272.363 250.756 272.875 251.108 273.536C251.471 274.197 251.652 274.955 251.652 275.808ZM247.46 272.736C246.724 272.736 246.105 272.96 245.604 273.408C245.113 273.856 244.825 274.443 244.74 275.168H250.18C250.095 274.453 249.801 273.872 249.3 273.424C248.809 272.965 248.196 272.736 247.46 272.736ZM31.488 295.52H33.024V301.696L38.224 295.52H39.616V304H38.08V297.824L32.896 304H31.488V295.52ZM42.5974 295.52H44.1334V299.12H48.9654V295.52H50.5014V304H48.9654V300.448H44.1334V304H42.5974V295.52ZM59.808 296.864H56.704V304H55.168V296.864H52.064V295.52H59.808V296.864ZM68.6676 299.808C68.6676 299.925 68.657 300.08 68.6356 300.272H61.7556C61.8516 301.019 62.177 301.621 62.7316 302.08C63.297 302.528 63.9956 302.752 64.8276 302.752C65.841 302.752 66.657 302.411 67.2756 301.728L68.1236 302.72C67.7396 303.168 67.2596 303.509 66.6836 303.744C66.1183 303.979 65.4836 304.096 64.7796 304.096C63.8836 304.096 63.089 303.915 62.3956 303.552C61.7023 303.179 61.1636 302.661 60.7796 302C60.4063 301.339 60.2196 300.592 60.2196 299.76C60.2196 298.939 60.401 298.197 60.7636 297.536C61.137 296.875 61.6436 296.363 62.2836 296C62.9343 295.627 63.665 295.44 64.4756 295.44C65.2863 295.44 66.0063 295.627 66.6356 296C67.2756 296.363 67.7716 296.875 68.1236 297.536C68.4863 298.197 68.6676 298.955 68.6676 299.808ZM64.4756 296.736C63.7396 296.736 63.121 296.96 62.6196 297.408C62.129 297.856 61.841 298.443 61.7556 299.168H67.1956C67.1103 298.453 66.817 297.872 66.3156 297.424C65.825 296.965 65.2116 296.736 64.4756 296.736ZM75.5465 295.44C76.3678 295.44 77.1038 295.621 77.7545 295.984C78.4052 296.347 78.9118 296.853 79.2745 297.504C79.6478 298.155 79.8345 298.907 79.8345 299.76C79.8345 300.613 79.6478 301.371 79.2745 302.032C78.9118 302.683 78.4052 303.189 77.7545 303.552C77.1038 303.915 76.3678 304.096 75.5465 304.096C74.9385 304.096 74.3785 303.979 73.8665 303.744C73.3652 303.509 72.9385 303.168 72.5865 302.72V307.104H71.0505V295.52H72.5225V296.864C72.8638 296.395 73.2958 296.043 73.8185 295.808C74.3412 295.563 74.9172 295.44 75.5465 295.44ZM75.4185 302.752C75.9625 302.752 76.4478 302.629 76.8745 302.384C77.3118 302.128 77.6532 301.776 77.8985 301.328C78.1545 300.869 78.2825 300.347 78.2825 299.76C78.2825 299.173 78.1545 298.656 77.8985 298.208C77.6532 297.749 77.3118 297.397 76.8745 297.152C76.4478 296.907 75.9625 296.784 75.4185 296.784C74.8852 296.784 74.3998 296.912 73.9625 297.168C73.5358 297.413 73.1945 297.76 72.9385 298.208C72.6932 298.656 72.5705 299.173 72.5705 299.76C72.5705 300.347 72.6932 300.869 72.9385 301.328C73.1838 301.776 73.5252 302.128 73.9625 302.384C74.3998 302.629 74.8852 302.752 75.4185 302.752ZM89.7301 299.808C89.7301 299.925 89.7195 300.08 89.6981 300.272H82.8181C82.9141 301.019 83.2395 301.621 83.7941 302.08C84.3595 302.528 85.0581 302.752 85.8901 302.752C86.9035 302.752 87.7195 302.411 88.3381 301.728L89.1861 302.72C88.8021 303.168 88.3221 303.509 87.7461 303.744C87.1808 303.979 86.5461 304.096 85.8421 304.096C84.9461 304.096 84.1515 303.915 83.4581 303.552C82.7648 303.179 82.2261 302.661 81.8421 302C81.4688 301.339 81.2821 300.592 81.2821 299.76C81.2821 298.939 81.4635 298.197 81.8261 297.536C82.1995 296.875 82.7061 296.363 83.3461 296C83.9968 295.627 84.7275 295.44 85.5381 295.44C86.3488 295.44 87.0688 295.627 87.6981 296C88.3381 296.363 88.8341 296.875 89.1861 297.536C89.5488 298.197 89.7301 298.955 89.7301 299.808ZM85.5381 296.736C84.8021 296.736 84.1835 296.96 83.6821 297.408C83.1915 297.856 82.9035 298.443 82.8181 299.168H88.2581C88.1728 298.453 87.8795 297.872 87.3781 297.424C86.8875 296.965 86.2741 296.736 85.5381 296.736ZM95.809 304.096C94.945 304.096 94.1717 303.909 93.489 303.536C92.817 303.163 92.289 302.651 91.905 302C91.521 301.339 91.329 300.592 91.329 299.76C91.329 298.928 91.521 298.187 91.905 297.536C92.289 296.875 92.817 296.363 93.489 296C94.1717 295.627 94.945 295.44 95.809 295.44C96.577 295.44 97.2597 295.595 97.857 295.904C98.465 296.213 98.9343 296.661 99.265 297.248L98.097 298C97.8303 297.595 97.4997 297.291 97.105 297.088C96.7103 296.885 96.273 296.784 95.793 296.784C95.2383 296.784 94.737 296.907 94.289 297.152C93.8517 297.397 93.505 297.749 93.249 298.208C93.0037 298.656 92.881 299.173 92.881 299.76C92.881 300.357 93.0037 300.885 93.249 301.344C93.505 301.792 93.8517 302.139 94.289 302.384C94.737 302.629 95.2383 302.752 95.793 302.752C96.273 302.752 96.7103 302.651 97.105 302.448C97.4997 302.245 97.8303 301.941 98.097 301.536L99.265 302.272C98.9343 302.859 98.465 303.312 97.857 303.632C97.2597 303.941 96.577 304.096 95.809 304.096ZM105.078 298.4C106.144 298.411 106.96 298.656 107.526 299.136C108.091 299.616 108.374 300.293 108.374 301.168C108.374 302.085 108.064 302.795 107.446 303.296C106.838 303.787 105.963 304.027 104.822 304.016L101.254 304V295.52H102.79V298.384L105.078 298.4ZM109.638 295.52H111.174V304H109.638V295.52ZM104.71 302.848C105.403 302.859 105.926 302.72 106.278 302.432C106.64 302.144 106.822 301.717 106.822 301.152C106.822 300.597 106.646 300.192 106.294 299.936C105.942 299.68 105.414 299.547 104.71 299.536L102.79 299.504V302.832L104.71 302.848ZM114.512 301.904C114.811 301.904 115.056 302.011 115.248 302.224C115.451 302.427 115.552 302.683 115.552 302.992C115.552 303.152 115.531 303.307 115.488 303.456C115.456 303.605 115.387 303.835 115.28 304.144L114.528 306.368H113.52L114.112 303.984C113.909 303.909 113.744 303.787 113.616 303.616C113.499 303.435 113.44 303.227 113.44 302.992C113.44 302.672 113.541 302.411 113.744 302.208C113.947 302.005 114.203 301.904 114.512 301.904ZM125.778 304.096C124.914 304.096 124.14 303.909 123.458 303.536C122.786 303.163 122.258 302.651 121.874 302C121.49 301.339 121.298 300.592 121.298 299.76C121.298 298.928 121.49 298.187 121.874 297.536C122.258 296.875 122.786 296.363 123.458 296C124.14 295.627 124.914 295.44 125.778 295.44C126.546 295.44 127.228 295.595 127.826 295.904C128.434 296.213 128.903 296.661 129.234 297.248L128.066 298C127.799 297.595 127.468 297.291 127.074 297.088C126.679 296.885 126.242 296.784 125.762 296.784C125.207 296.784 124.706 296.907 124.258 297.152C123.82 297.397 123.474 297.749 123.218 298.208C122.972 298.656 122.85 299.173 122.85 299.76C122.85 300.357 122.972 300.885 123.218 301.344C123.474 301.792 123.82 302.139 124.258 302.384C124.706 302.629 125.207 302.752 125.762 302.752C126.242 302.752 126.679 302.651 127.074 302.448C127.468 302.245 127.799 301.941 128.066 301.536L129.234 302.272C128.903 302.859 128.434 303.312 127.826 303.632C127.228 303.941 126.546 304.096 125.778 304.096ZM139.078 295.52V304H137.542V296.864H132.758V304H131.222V295.52H139.078ZM145.683 304.096C144.84 304.096 144.083 303.909 143.411 303.536C142.739 303.163 142.211 302.651 141.827 302C141.453 301.339 141.267 300.592 141.267 299.76C141.267 298.928 141.453 298.187 141.827 297.536C142.211 296.875 142.739 296.363 143.411 296C144.083 295.627 144.84 295.44 145.683 295.44C146.525 295.44 147.277 295.627 147.939 296C148.611 296.363 149.133 296.875 149.507 297.536C149.891 298.187 150.083 298.928 150.083 299.76C150.083 300.592 149.891 301.339 149.507 302C149.133 302.651 148.611 303.163 147.939 303.536C147.277 303.909 146.525 304.096 145.683 304.096ZM145.683 302.752C146.227 302.752 146.712 302.629 147.139 302.384C147.576 302.128 147.917 301.776 148.163 301.328C148.408 300.869 148.531 300.347 148.531 299.76C148.531 299.173 148.408 298.656 148.163 298.208C147.917 297.749 147.576 297.397 147.139 297.152C146.712 296.907 146.227 296.784 145.683 296.784C145.139 296.784 144.648 296.907 144.211 297.152C143.784 297.397 143.443 297.749 143.187 298.208C142.941 298.656 142.819 299.173 142.819 299.76C142.819 300.347 142.941 300.869 143.187 301.328C143.443 301.776 143.784 302.128 144.211 302.384C144.648 302.629 145.139 302.752 145.683 302.752ZM155.997 304.096C155.133 304.096 154.359 303.909 153.677 303.536C153.005 303.163 152.477 302.651 152.093 302C151.709 301.339 151.517 300.592 151.517 299.76C151.517 298.928 151.709 298.187 152.093 297.536C152.477 296.875 153.005 296.363 153.677 296C154.359 295.627 155.133 295.44 155.997 295.44C156.765 295.44 157.447 295.595 158.045 295.904C158.653 296.213 159.122 296.661 159.453 297.248L158.285 298C158.018 297.595 157.687 297.291 157.293 297.088C156.898 296.885 156.461 296.784 155.981 296.784C155.426 296.784 154.925 296.907 154.477 297.152C154.039 297.397 153.693 297.749 153.437 298.208C153.191 298.656 153.069 299.173 153.069 299.76C153.069 300.357 153.191 300.885 153.437 301.344C153.693 301.792 154.039 302.139 154.477 302.384C154.925 302.629 155.426 302.752 155.981 302.752C156.461 302.752 156.898 302.651 157.293 302.448C157.687 302.245 158.018 301.941 158.285 301.536L159.453 302.272C159.122 302.859 158.653 303.312 158.045 303.632C157.447 303.941 156.765 304.096 155.997 304.096ZM164.948 304.096C164.105 304.096 163.348 303.909 162.676 303.536C162.004 303.163 161.476 302.651 161.092 302C160.719 301.339 160.532 300.592 160.532 299.76C160.532 298.928 160.719 298.187 161.092 297.536C161.476 296.875 162.004 296.363 162.676 296C163.348 295.627 164.105 295.44 164.948 295.44C165.791 295.44 166.543 295.627 167.204 296C167.876 296.363 168.399 296.875 168.772 297.536C169.156 298.187 169.348 298.928 169.348 299.76C169.348 300.592 169.156 301.339 168.772 302C168.399 302.651 167.876 303.163 167.204 303.536C166.543 303.909 165.791 304.096 164.948 304.096ZM164.948 302.752C165.492 302.752 165.977 302.629 166.404 302.384C166.841 302.128 167.183 301.776 167.428 301.328C167.673 300.869 167.796 300.347 167.796 299.76C167.796 299.173 167.673 298.656 167.428 298.208C167.183 297.749 166.841 297.397 166.404 297.152C165.977 296.907 165.492 296.784 164.948 296.784C164.404 296.784 163.913 296.907 163.476 297.152C163.049 297.397 162.708 297.749 162.452 298.208C162.207 298.656 162.084 299.173 162.084 299.76C162.084 300.347 162.207 300.869 162.452 301.328C162.708 301.776 163.049 302.128 163.476 302.384C163.913 302.629 164.404 302.752 164.948 302.752ZM175.886 295.808C176.675 295.808 177.379 295.984 177.998 296.336C178.617 296.688 179.097 297.179 179.438 297.808C179.79 298.427 179.966 299.136 179.966 299.936C179.966 300.757 179.779 301.488 179.406 302.128C179.043 302.757 178.526 303.248 177.854 303.6C177.193 303.952 176.435 304.128 175.582 304.128C174.142 304.128 173.027 303.637 172.238 302.656C171.459 301.664 171.07 300.272 171.07 298.48C171.07 296.741 171.427 295.381 172.142 294.4C172.857 293.408 173.95 292.752 175.422 292.432L179.294 291.568L179.518 292.976L175.95 293.744C174.841 293.989 174.014 294.405 173.47 294.992C172.926 295.579 172.617 296.421 172.542 297.52C172.905 296.976 173.374 296.555 173.95 296.256C174.526 295.957 175.171 295.808 175.886 295.808ZM175.614 302.848C176.158 302.848 176.638 302.725 177.054 302.48C177.481 302.235 177.811 301.899 178.046 301.472C178.281 301.035 178.398 300.539 178.398 299.984C178.398 299.141 178.142 298.464 177.63 297.952C177.118 297.44 176.446 297.184 175.614 297.184C174.782 297.184 174.105 297.44 173.582 297.952C173.07 298.464 172.814 299.141 172.814 299.984C172.814 300.539 172.931 301.035 173.166 301.472C173.411 301.899 173.747 302.235 174.174 302.48C174.601 302.725 175.081 302.848 175.614 302.848ZM182.16 295.52H183.696V299.12H188.528V295.52H190.064V304H188.528V300.448H183.696V304H182.16V295.52ZM196.683 304.096C195.84 304.096 195.083 303.909 194.411 303.536C193.739 303.163 193.211 302.651 192.827 302C192.453 301.339 192.267 300.592 192.267 299.76C192.267 298.928 192.453 298.187 192.827 297.536C193.211 296.875 193.739 296.363 194.411 296C195.083 295.627 195.84 295.44 196.683 295.44C197.525 295.44 198.277 295.627 198.939 296C199.611 296.363 200.133 296.875 200.507 297.536C200.891 298.187 201.083 298.928 201.083 299.76C201.083 300.592 200.891 301.339 200.507 302C200.133 302.651 199.611 303.163 198.939 303.536C198.277 303.909 197.525 304.096 196.683 304.096ZM196.683 302.752C197.227 302.752 197.712 302.629 198.139 302.384C198.576 302.128 198.917 301.776 199.163 301.328C199.408 300.869 199.531 300.347 199.531 299.76C199.531 299.173 199.408 298.656 199.163 298.208C198.917 297.749 198.576 297.397 198.139 297.152C197.712 296.907 197.227 296.784 196.683 296.784C196.139 296.784 195.648 296.907 195.211 297.152C194.784 297.397 194.443 297.749 194.187 298.208C193.941 298.656 193.819 299.173 193.819 299.76C193.819 300.347 193.941 300.869 194.187 301.328C194.443 301.776 194.784 302.128 195.211 302.384C195.648 302.629 196.139 302.752 196.683 302.752ZM206.997 304.096C206.133 304.096 205.359 303.909 204.677 303.536C204.005 303.163 203.477 302.651 203.093 302C202.709 301.339 202.517 300.592 202.517 299.76C202.517 298.928 202.709 298.187 203.093 297.536C203.477 296.875 204.005 296.363 204.677 296C205.359 295.627 206.133 295.44 206.997 295.44C207.765 295.44 208.447 295.595 209.045 295.904C209.653 296.213 210.122 296.661 210.453 297.248L209.285 298C209.018 297.595 208.687 297.291 208.293 297.088C207.898 296.885 207.461 296.784 206.981 296.784C206.426 296.784 205.925 296.907 205.477 297.152C205.039 297.397 204.693 297.749 204.437 298.208C204.191 298.656 204.069 299.173 204.069 299.76C204.069 300.357 204.191 300.885 204.437 301.344C204.693 301.792 205.039 302.139 205.477 302.384C205.925 302.629 206.426 302.752 206.981 302.752C207.461 302.752 207.898 302.651 208.293 302.448C208.687 302.245 209.018 301.941 209.285 301.536L210.453 302.272C210.122 302.859 209.653 303.312 209.045 303.632C208.447 303.941 207.765 304.096 206.997 304.096ZM218.652 296.864H215.548V304H214.012V296.864H210.908V295.52H218.652V296.864ZM220.222 295.52H221.758V301.696L226.958 295.52H228.35V304H226.814V297.824L221.63 304H220.222V295.52ZM235.629 295.52H237.165V301.696L242.365 295.52H243.757V304H242.221V297.824L237.037 304H235.629V295.52ZM39.344 319.52V328H37.808V320.864H33.024V328H31.488V319.52H39.344ZM46.8121 319.44C47.6335 319.44 48.3695 319.621 49.0201 319.984C49.6708 320.347 50.1775 320.853 50.5401 321.504C50.9135 322.155 51.1001 322.907 51.1001 323.76C51.1001 324.613 50.9135 325.371 50.5401 326.032C50.1775 326.683 49.6708 327.189 49.0201 327.552C48.3695 327.915 47.6335 328.096 46.8121 328.096C46.2041 328.096 45.6441 327.979 45.1321 327.744C44.6308 327.509 44.2041 327.168 43.8521 326.72V331.104H42.3161V319.52H43.7881V320.864C44.1295 320.395 44.5615 320.043 45.0841 319.808C45.6068 319.563 46.1828 319.44 46.8121 319.44ZM46.6841 326.752C47.2281 326.752 47.7135 326.629 48.1401 326.384C48.5775 326.128 48.9188 325.776 49.1641 325.328C49.4201 324.869 49.5481 324.347 49.5481 323.76C49.5481 323.173 49.4201 322.656 49.1641 322.208C48.9188 321.749 48.5775 321.397 48.1401 321.152C47.7135 320.907 47.2281 320.784 46.6841 320.784C46.1508 320.784 45.6655 320.912 45.2281 321.168C44.8015 321.413 44.4601 321.76 44.2041 322.208C43.9588 322.656 43.8361 323.173 43.8361 323.76C43.8361 324.347 43.9588 324.869 44.2041 325.328C44.4495 325.776 44.7908 326.128 45.2281 326.384C45.6655 326.629 46.1508 326.752 46.6841 326.752ZM60.9958 323.808C60.9958 323.925 60.9851 324.08 60.9638 324.272H54.0838C54.1798 325.019 54.5051 325.621 55.0598 326.08C55.6251 326.528 56.3238 326.752 57.1558 326.752C58.1691 326.752 58.9851 326.411 59.6038 325.728L60.4518 326.72C60.0678 327.168 59.5878 327.509 59.0118 327.744C58.4464 327.979 57.8118 328.096 57.1078 328.096C56.2118 328.096 55.4171 327.915 54.7238 327.552C54.0304 327.179 53.4918 326.661 53.1078 326C52.7344 325.339 52.5478 324.592 52.5478 323.76C52.5478 322.939 52.7291 322.197 53.0918 321.536C53.4651 320.875 53.9718 320.363 54.6118 320C55.2624 319.627 55.9931 319.44 56.8038 319.44C57.6144 319.44 58.3344 319.627 58.9638 320C59.6038 320.363 60.0998 320.875 60.4518 321.536C60.8144 322.197 60.9958 322.955 60.9958 323.808ZM56.8038 320.736C56.0678 320.736 55.4491 320.96 54.9478 321.408C54.4571 321.856 54.1691 322.443 54.0838 323.168H59.5238C59.4384 322.453 59.1451 321.872 58.6438 321.424C58.1531 320.965 57.5398 320.736 56.8038 320.736ZM71.862 326.656V329.968H70.422V328H63.334V329.968H61.878V326.656H62.326C62.87 326.624 63.2433 326.24 63.446 325.504C63.6487 324.768 63.7873 323.728 63.862 322.384L63.99 319.52H70.566V326.656H71.862ZM65.27 322.496C65.2273 323.563 65.1367 324.448 64.998 325.152C64.87 325.845 64.63 326.347 64.278 326.656H69.03V320.864H65.35L65.27 322.496ZM78.359 319.44C79.1803 319.44 79.9163 319.621 80.567 319.984C81.2177 320.347 81.7243 320.853 82.087 321.504C82.4603 322.155 82.647 322.907 82.647 323.76C82.647 324.613 82.4603 325.371 82.087 326.032C81.7243 326.683 81.2177 327.189 80.567 327.552C79.9163 327.915 79.1803 328.096 78.359 328.096C77.751 328.096 77.191 327.979 76.679 327.744C76.1777 327.509 75.751 327.168 75.399 326.72V331.104H73.863V319.52H75.335V320.864C75.6763 320.395 76.1083 320.043 76.631 319.808C77.1537 319.563 77.7297 319.44 78.359 319.44ZM78.231 326.752C78.775 326.752 79.2603 326.629 79.687 326.384C80.1243 326.128 80.4657 325.776 80.711 325.328C80.967 324.869 81.095 324.347 81.095 323.76C81.095 323.173 80.967 322.656 80.711 322.208C80.4657 321.749 80.1243 321.397 79.687 321.152C79.2603 320.907 78.775 320.784 78.231 320.784C77.6977 320.784 77.2123 320.912 76.775 321.168C76.3483 321.413 76.007 321.76 75.751 322.208C75.5057 322.656 75.383 323.173 75.383 323.76C75.383 324.347 75.5057 324.869 75.751 325.328C75.9963 325.776 76.3377 326.128 76.775 326.384C77.2123 326.629 77.6977 326.752 78.231 326.752ZM87.8245 319.44C88.9978 319.44 89.8938 319.728 90.5125 320.304C91.1418 320.88 91.4565 321.739 91.4565 322.88V328H90.0005V326.88C89.7445 327.275 89.3765 327.579 88.8965 327.792C88.4272 327.995 87.8672 328.096 87.2165 328.096C86.2672 328.096 85.5045 327.867 84.9285 327.408C84.3632 326.949 84.0805 326.347 84.0805 325.6C84.0805 324.853 84.3525 324.256 84.8965 323.808C85.4405 323.349 86.3045 323.12 87.4885 323.12H89.9205V322.816C89.9205 322.155 89.7285 321.648 89.3445 321.296C88.9605 320.944 88.3952 320.768 87.6485 320.768C87.1472 320.768 86.6565 320.853 86.1765 321.024C85.6965 321.184 85.2912 321.403 84.9605 321.68L84.3205 320.528C84.7578 320.176 85.2805 319.909 85.8885 319.728C86.4965 319.536 87.1418 319.44 87.8245 319.44ZM87.4725 326.912C88.0592 326.912 88.5658 326.784 88.9925 326.528C89.4192 326.261 89.7285 325.888 89.9205 325.408V324.224H87.5525C86.2512 324.224 85.6005 324.661 85.6005 325.536C85.6005 325.963 85.7658 326.299 86.0965 326.544C86.4272 326.789 86.8858 326.912 87.4725 326.912ZM97.9184 328.096C97.0544 328.096 96.281 327.909 95.5984 327.536C94.9264 327.163 94.3984 326.651 94.0144 326C93.6304 325.339 93.4384 324.592 93.4384 323.76C93.4384 322.928 93.6304 322.187 94.0144 321.536C94.3984 320.875 94.9264 320.363 95.5984 320C96.281 319.627 97.0544 319.44 97.9184 319.44C98.6864 319.44 99.369 319.595 99.9664 319.904C100.574 320.213 101.044 320.661 101.374 321.248L100.206 322C99.9397 321.595 99.609 321.291 99.2144 321.088C98.8197 320.885 98.3824 320.784 97.9024 320.784C97.3477 320.784 96.8464 320.907 96.3984 321.152C95.961 321.397 95.6144 321.749 95.3584 322.208C95.113 322.656 94.9904 323.173 94.9904 323.76C94.9904 324.357 95.113 324.885 95.3584 325.344C95.6144 325.792 95.961 326.139 96.3984 326.384C96.8464 326.629 97.3477 326.752 97.9024 326.752C98.3824 326.752 98.8197 326.651 99.2144 326.448C99.609 326.245 99.9397 325.941 100.206 325.536L101.374 326.272C101.044 326.859 100.574 327.312 99.9664 327.632C99.369 327.941 98.6864 328.096 97.9184 328.096ZM111.219 319.52V328H109.683V320.864H104.899V328H103.363V319.52H111.219ZM117.823 328.096C116.98 328.096 116.223 327.909 115.551 327.536C114.879 327.163 114.351 326.651 113.967 326C113.594 325.339 113.407 324.592 113.407 323.76C113.407 322.928 113.594 322.187 113.967 321.536C114.351 320.875 114.879 320.363 115.551 320C116.223 319.627 116.98 319.44 117.823 319.44C118.666 319.44 119.418 319.627 120.079 320C120.751 320.363 121.274 320.875 121.647 321.536C122.031 322.187 122.223 322.928 122.223 323.76C122.223 324.592 122.031 325.339 121.647 326C121.274 326.651 120.751 327.163 120.079 327.536C119.418 327.909 118.666 328.096 117.823 328.096ZM117.823 326.752C118.367 326.752 118.852 326.629 119.279 326.384C119.716 326.128 120.058 325.776 120.303 325.328C120.548 324.869 120.671 324.347 120.671 323.76C120.671 323.173 120.548 322.656 120.303 322.208C120.058 321.749 119.716 321.397 119.279 321.152C118.852 320.907 118.367 320.784 117.823 320.784C117.279 320.784 116.788 320.907 116.351 321.152C115.924 321.397 115.583 321.749 115.327 322.208C115.082 322.656 114.959 323.173 114.959 323.76C114.959 324.347 115.082 324.869 115.327 325.328C115.583 325.776 115.924 326.128 116.351 326.384C116.788 326.629 117.279 326.752 117.823 326.752ZM131.659 319.52V328H130.123V320.864H126.475L126.379 322.752C126.325 323.893 126.224 324.848 126.075 325.616C125.925 326.373 125.68 326.981 125.339 327.44C124.997 327.899 124.523 328.128 123.915 328.128C123.637 328.128 123.323 328.08 122.971 327.984L123.067 326.688C123.205 326.72 123.333 326.736 123.451 326.736C123.877 326.736 124.197 326.549 124.411 326.176C124.624 325.803 124.763 325.36 124.827 324.848C124.891 324.336 124.949 323.605 125.003 322.656L125.147 319.52H131.659ZM138.261 328.096C137.418 328.096 136.661 327.909 135.989 327.536C135.317 327.163 134.789 326.651 134.405 326C134.031 325.339 133.845 324.592 133.845 323.76C133.845 322.928 134.031 322.187 134.405 321.536C134.789 320.875 135.317 320.363 135.989 320C136.661 319.627 137.418 319.44 138.261 319.44C139.103 319.44 139.855 319.627 140.517 320C141.189 320.363 141.711 320.875 142.085 321.536C142.469 322.187 142.661 322.928 142.661 323.76C142.661 324.592 142.469 325.339 142.085 326C141.711 326.651 141.189 327.163 140.517 327.536C139.855 327.909 139.103 328.096 138.261 328.096ZM138.261 326.752C138.805 326.752 139.29 326.629 139.717 326.384C140.154 326.128 140.495 325.776 140.741 325.328C140.986 324.869 141.109 324.347 141.109 323.76C141.109 323.173 140.986 322.656 140.741 322.208C140.495 321.749 140.154 321.397 139.717 321.152C139.29 320.907 138.805 320.784 138.261 320.784C137.717 320.784 137.226 320.907 136.789 321.152C136.362 321.397 136.021 321.749 135.765 322.208C135.519 322.656 135.397 323.173 135.397 323.76C135.397 324.347 135.519 324.869 135.765 325.328C136.021 325.776 136.362 326.128 136.789 326.384C137.226 326.629 137.717 326.752 138.261 326.752ZM152.309 324.416H150.661V328H149.125V324.416H147.477L145.141 328H143.317L146.229 323.616L143.541 319.52H145.173L147.461 323.104H149.125V319.52H150.661V323.104H152.325L154.613 319.52H156.261L153.573 323.632L156.485 328H154.661L152.309 324.416ZM165.558 323.808C165.558 323.925 165.548 324.08 165.526 324.272H158.646C158.742 325.019 159.068 325.621 159.622 326.08C160.188 326.528 160.886 326.752 161.718 326.752C162.732 326.752 163.548 326.411 164.166 325.728L165.014 326.72C164.63 327.168 164.15 327.509 163.574 327.744C163.009 327.979 162.374 328.096 161.67 328.096C160.774 328.096 159.98 327.915 159.286 327.552C158.593 327.179 158.054 326.661 157.67 326C157.297 325.339 157.11 324.592 157.11 323.76C157.11 322.939 157.292 322.197 157.654 321.536C158.028 320.875 158.534 320.363 159.174 320C159.825 319.627 160.556 319.44 161.366 319.44C162.177 319.44 162.897 319.627 163.526 320C164.166 320.363 164.662 320.875 165.014 321.536C165.377 322.197 165.558 322.955 165.558 323.808ZM161.366 320.736C160.63 320.736 160.012 320.96 159.51 321.408C159.02 321.856 158.732 322.443 158.646 323.168H164.086C164.001 322.453 163.708 321.872 163.206 321.424C162.716 320.965 162.102 320.736 161.366 320.736ZM167.941 319.52H169.477V323.12H174.309V319.52H175.845V328H174.309V324.448H169.477V328H167.941V319.52ZM178.832 319.52H180.368V323.12H185.2V319.52H186.736V328H185.2V324.448H180.368V328H178.832V319.52ZM193.354 328.096C192.512 328.096 191.754 327.909 191.082 327.536C190.41 327.163 189.882 326.651 189.498 326C189.125 325.339 188.938 324.592 188.938 323.76C188.938 322.928 189.125 322.187 189.498 321.536C189.882 320.875 190.41 320.363 191.082 320C191.754 319.627 192.512 319.44 193.354 319.44C194.197 319.44 194.949 319.627 195.61 320C196.282 320.363 196.805 320.875 197.178 321.536C197.562 322.187 197.754 322.928 197.754 323.76C197.754 324.592 197.562 325.339 197.178 326C196.805 326.651 196.282 327.163 195.61 327.536C194.949 327.909 194.197 328.096 193.354 328.096ZM193.354 326.752C193.898 326.752 194.384 326.629 194.81 326.384C195.248 326.128 195.589 325.776 195.834 325.328C196.08 324.869 196.202 324.347 196.202 323.76C196.202 323.173 196.08 322.656 195.834 322.208C195.589 321.749 195.248 321.397 194.81 321.152C194.384 320.907 193.898 320.784 193.354 320.784C192.81 320.784 192.32 320.907 191.882 321.152C191.456 321.397 191.114 321.749 190.858 322.208C190.613 322.656 190.49 323.173 190.49 323.76C190.49 324.347 190.613 324.869 190.858 325.328C191.114 325.776 191.456 326.128 191.882 326.384C192.32 326.629 192.81 326.752 193.354 326.752ZM203.668 328.096C202.804 328.096 202.031 327.909 201.348 327.536C200.676 327.163 200.148 326.651 199.764 326C199.38 325.339 199.188 324.592 199.188 323.76C199.188 322.928 199.38 322.187 199.764 321.536C200.148 320.875 200.676 320.363 201.348 320C202.031 319.627 202.804 319.44 203.668 319.44C204.436 319.44 205.119 319.595 205.716 319.904C206.324 320.213 206.794 320.661 207.124 321.248L205.956 322C205.69 321.595 205.359 321.291 204.964 321.088C204.57 320.885 204.132 320.784 203.652 320.784C203.098 320.784 202.596 320.907 202.148 321.152C201.711 321.397 201.364 321.749 201.108 322.208C200.863 322.656 200.74 323.173 200.74 323.76C200.74 324.357 200.863 324.885 201.108 325.344C201.364 325.792 201.711 326.139 202.148 326.384C202.596 326.629 203.098 326.752 203.652 326.752C204.132 326.752 204.57 326.651 204.964 326.448C205.359 326.245 205.69 325.941 205.956 325.536L207.124 326.272C206.794 326.859 206.324 327.312 205.716 327.632C205.119 327.941 204.436 328.096 203.668 328.096ZM215.324 320.864H212.22V328H210.684V320.864H207.58V319.52H215.324V320.864ZM220.814 322.4C221.892 322.411 222.713 322.656 223.278 323.136C223.844 323.616 224.126 324.293 224.126 325.168C224.126 326.085 223.817 326.795 223.198 327.296C222.59 327.787 221.716 328.027 220.574 328.016L216.894 328V319.52H218.43V322.384L220.814 322.4ZM220.446 326.848C221.14 326.859 221.662 326.72 222.014 326.432C222.377 326.144 222.558 325.717 222.558 325.152C222.558 324.597 222.382 324.192 222.03 323.936C221.689 323.68 221.161 323.547 220.446 323.536L218.43 323.504V326.832L220.446 326.848Z" fill="white"/>
<defs>
<linearGradient id="paint0_linear_460_473" x1="0" y1="180.5" x2="300" y2="180.5" gradientUnits="userSpaceOnUse">
<stop stop-color="#645CC3"/>
<stop offset="1" stop-color="#645CC3" stop-opacity="0.75"/>
</linearGradient>
</defs>
</svg>
