<svg width="274" height="237" viewBox="0 0 274 237" fill="none" xmlns="http://www.w3.org/2000/svg">
<path d="M206.229 185.131C234.05 165.576 223.69 123.267 183.089 90.6312C142.488 57.9951 87.0212 47.3906 59.1998 66.9452C31.3784 86.4999 41.7383 128.809 82.3392 161.445C122.94 194.081 178.407 204.686 206.229 185.131Z" fill="#FF8060"/>
<path d="M210.702 177.275C237.508 158.435 226.324 116.705 185.723 84.0688C145.122 51.4327 90.4788 40.2492 63.6734 59.0898C36.868 77.9303 48.0515 119.66 88.6524 152.296C129.253 184.933 183.897 196.116 210.702 177.275Z" fill="#FB4516"/>
<path fill-rule="evenodd" clip-rule="evenodd" d="M177.218 110.871C180.452 113.471 184.846 114.37 186.982 112.869C189.117 111.368 188.218 108.013 184.983 105.413C181.749 102.812 177.355 101.913 175.219 103.414C173.084 104.915 173.983 108.271 177.218 110.871Z" fill="white"/>
<path fill-rule="evenodd" clip-rule="evenodd" d="M127.561 107.227C129.819 109.627 133.437 111.072 136.26 110.417C139.084 109.761 139.261 106.979 137.003 104.578L120.795 86.2852C120.795 86.2852 117.138 78.6654 121.909 77.5275C125.121 76.5992 129.52 78.3805 133.743 82.9447L149.95 101.238C152.208 103.638 155.826 105.083 158.649 104.428C161.473 103.772 161.65 100.989 159.392 98.5891L143.184 80.2961C134.246 70.1858 124.176 66.1869 117.558 68.18C109.77 70.1098 112.445 76.6477 112.445 76.6477L112.251 76.7841L111.563 75.9386C109.304 73.5383 105.687 72.0932 102.863 72.7487C100.04 73.4041 99.8628 76.1869 102.121 78.5872L127.561 107.227Z" fill="white"/>
<path fill-rule="evenodd" clip-rule="evenodd" d="M107.062 103.913C91.1287 97.8325 81.6872 100.481 80.6678 108.73C79.9425 117.214 90.0574 128.27 105.503 134.25C121.242 140.467 132.143 137.236 132.868 128.751C133.499 120.775 126.524 112.829 121.637 110.948C118.802 109.839 116.172 110.358 115.995 113.141C115.724 116.433 121.594 119.396 121.234 124.079C120.768 127.508 116.974 128.846 110.822 127.41L112.367 109.931C112.744 107.894 110.091 104.885 107.062 103.913ZM100.458 123.175C94.8825 120.448 91.7364 116.457 92.0077 113.165C92.279 109.873 95.8792 108.671 101.743 110.752L100.458 123.175Z" fill="white"/>
<path fill-rule="evenodd" clip-rule="evenodd" d="M175.221 149.048C182.016 144.272 185.283 136.659 183.273 127.438C182.873 125.947 182.473 124.456 181.78 122.728C180.792 120.764 180.392 119.273 181.945 118.181C183.887 116.817 187.792 117.616 190.733 119.98C191.909 120.925 192.891 122.007 193.191 123.126C194.279 125.462 194.978 128.072 195.578 130.309C197.993 141.903 194.35 151.553 185.807 157.557C176.683 163.97 163.236 165.447 148.984 163.058C145.86 162.595 142.637 161.76 139.608 160.787C138.338 160.351 136.773 159.678 135.597 158.733C132.656 156.369 131.857 153.387 133.798 152.022C135.351 150.93 137.304 151.33 139.845 152.203C141.798 152.602 144.045 153.238 145.998 153.638C157.32 155.427 167.844 154.233 175.221 149.048Z" fill="white"/>
</svg>
