<svg width="133" height="137" viewBox="0 0 133 137" fill="none" xmlns="http://www.w3.org/2000/svg">
<g filter="url(#filter0_f_460_560)">
<path d="M89.2145 111.792C105.844 106.715 107.538 84.5082 92.9993 62.1925C78.4606 39.8768 53.1941 25.9024 36.5651 30.9799C19.9361 36.0575 18.2415 58.2641 32.7803 80.5798C47.319 102.896 72.5854 116.87 89.2145 111.792Z" fill="#FF8060"/>
<path d="M92.6376 108.687C108.659 103.795 109.862 81.7383 95.3229 59.4226C80.7842 37.1068 56.01 22.9822 39.9882 27.8743C23.9665 32.7664 22.7642 54.8226 37.303 77.1384C51.8417 99.4541 76.6159 113.579 92.6376 108.687Z" fill="#FB4516"/>
<path fill-rule="evenodd" clip-rule="evenodd" d="M86.9273 71.0936C88.0855 72.8714 90.0776 74.0072 91.354 73.6174C92.6305 73.2277 92.7271 71.4542 91.5689 69.6763C90.4106 67.8984 88.4185 66.7627 87.1421 67.1525C85.8656 67.5422 85.769 69.3157 86.9273 71.0936Z" fill="white"/>
<path fill-rule="evenodd" clip-rule="evenodd" d="M63.3774 61.4259C64.093 62.9513 65.6209 64.2288 67.0972 64.3594C68.5734 64.4899 69.1021 63.1659 68.3864 61.6404L63.4201 50.1737C63.4201 50.1737 62.8549 45.8895 65.3541 46.0953C67.0625 46.155 68.917 47.7202 70.2429 50.6096L75.2092 62.0762C75.9248 63.6017 77.4527 64.8792 78.929 65.0097C80.4053 65.1403 80.9339 63.8162 80.2183 62.2907L75.252 50.8241C72.5163 44.4897 68.2593 40.9451 64.7265 40.8611C60.635 40.5602 60.8951 44.1626 60.8951 44.1626L60.779 44.198L60.5792 43.6777C59.8636 42.1522 58.3357 40.8747 56.8594 40.7442C55.3831 40.6136 54.8545 41.9377 55.5701 43.4632L63.3774 61.4259Z" fill="white"/>
<path fill-rule="evenodd" clip-rule="evenodd" d="M53.9435 56.5553C47.168 51.0669 42.1589 50.8524 40.3517 54.6984C38.6499 58.706 41.8067 65.687 48.3609 71.0492C55.0205 76.5731 60.8311 76.7366 62.5329 72.729C64.108 68.9539 61.9827 63.9833 59.9068 62.2918C58.7056 61.3022 57.3453 61.1362 56.8167 62.4602C56.1613 64.0168 58.5423 66.3902 57.6226 68.6088C56.8512 70.2008 54.7947 70.2474 52.0334 68.5714L55.5639 60.3237C56.071 59.3937 55.2608 57.5096 53.9435 56.5553ZM47.671 64.8652C45.3953 62.6534 44.5013 60.2135 45.1567 58.657C45.8121 57.1004 47.7526 57.0893 50.2711 59.0331L47.671 64.8652Z" fill="white"/>
<path fill-rule="evenodd" clip-rule="evenodd" d="M79.8856 89.3273C83.947 88.0872 86.7448 84.9076 87.2347 80.1074C87.2776 79.3192 87.3206 78.5309 87.2583 77.5811C87.0906 76.4696 87.1336 75.6814 88.0619 75.3979C89.2223 75.0436 90.993 76.0532 92.046 77.6694C92.4672 78.3159 92.7724 78.9979 92.7401 79.589C92.897 80.8976 92.8218 82.2769 92.7574 83.4593C92.087 89.4773 88.7821 93.5868 83.6764 95.1458C78.2225 96.8111 71.4534 95.39 64.9078 91.9629C63.4638 91.2411 62.0304 90.3224 60.7131 89.3681C60.1652 88.9541 59.5119 88.3785 59.0907 87.732C58.0377 86.1158 58.1236 84.5393 59.284 84.185C60.2123 83.9015 61.0977 84.4063 62.1937 85.2343C63.079 85.7391 64.0697 86.4055 64.955 86.9103C70.1726 89.5802 75.4761 90.6737 79.8856 89.3273Z" fill="white"/>
</g>
<defs>
<filter id="filter0_f_460_560" x="6.97827" y="15.0164" width="118.669" height="106.528" filterUnits="userSpaceOnUse" color-interpolation-filters="sRGB">
<feFlood flood-opacity="0" result="BackgroundImageFix"/>
<feBlend mode="normal" in="SourceGraphic" in2="BackgroundImageFix" result="shape"/>
<feGaussianBlur stdDeviation="2" result="effect1_foregroundBlur_460_560"/>
</filter>
</defs>
</svg>
