<svg width="149" height="63" viewBox="0 0 149 63" fill="none" xmlns="http://www.w3.org/2000/svg">
<path d="M146.92 62.9238C147.192 62.9719 147.452 62.7904 147.5 62.5185L148.283 58.0872C148.331 57.8153 148.15 57.5559 147.878 57.5078C147.606 57.4597 147.347 57.6412 147.298 57.9131L146.602 61.852L142.663 61.1557C142.391 61.1076 142.132 61.2891 142.084 61.561C142.036 61.8329 142.217 62.0923 142.489 62.1404L146.92 62.9238ZM0.737429 2.56071C1.20559 2.48723 1.68327 2.41601 2.17021 2.34721L2.03031 1.35704C1.53842 1.42655 1.05569 1.49852 0.582371 1.57281L0.737429 2.56071ZM5.104 1.97556C6.05754 1.86804 7.04033 1.76961 8.05087 1.68119L7.9637 0.684993C6.94506 0.774121 5.95397 0.873382 4.99196 0.981852L5.104 1.97556ZM11.0102 1.45676C11.9754 1.3945 12.9623 1.34126 13.9697 1.29773L13.9265 0.298661C12.9121 0.342493 11.9182 0.396117 10.9459 0.458836L11.0102 1.45676ZM16.9142 1.20014C17.8835 1.1776 18.8696 1.16399 19.8715 1.15986L19.8674 0.159869C18.8591 0.164024 17.8667 0.177724 16.8909 0.200412L16.9142 1.20014ZM22.8416 1.17528C23.8154 1.18931 24.8026 1.21227 25.8023 1.24464L25.8347 0.245161C24.829 0.212603 23.8358 0.189499 22.856 0.175383L22.8416 1.17528ZM28.7511 1.36604C29.7281 1.4148 30.7157 1.47255 31.7135 1.53968L31.7806 0.541938C30.7771 0.474412 29.7837 0.416329 28.801 0.367279L28.7511 1.36604ZM34.6691 1.76398C35.6407 1.84606 36.6208 1.93706 37.609 2.03736L37.71 1.04248C36.7162 0.941605 35.7304 0.850075 34.7533 0.767531L34.6691 1.76398ZM40.5612 2.36225C41.5321 2.4774 42.5099 2.60156 43.4941 2.73507L43.6285 1.74415C42.6387 1.60988 41.6554 1.48501 40.679 1.36921L40.5612 2.36225ZM46.4228 3.15743C47.3953 3.30602 48.3734 3.46382 49.3567 3.63111L49.5244 2.64528C48.5356 2.47703 47.5519 2.31834 46.5739 2.1689L46.4228 3.15743ZM52.2603 4.15033C53.2268 4.33157 54.1977 4.52208 55.1726 4.72215L55.3736 3.74257C54.3931 3.54135 53.4167 3.34974 52.4447 3.16746L52.2603 4.15033ZM58.0636 5.34126C59.0219 5.55504 59.9834 5.77817 60.9479 6.01091L61.1825 5.03881C60.2123 4.80471 59.2452 4.58028 58.2814 4.36525L58.0636 5.34126ZM63.8235 6.73133C64.7725 6.97791 65.7239 7.23392 66.6774 7.4996L66.9458 6.5363C65.9867 6.26903 65.0296 6.0115 64.075 5.76347L63.8235 6.73133ZM69.531 8.32222C70.4698 8.60193 71.4101 8.89117 72.3516 9.19016L72.6542 8.23707C71.707 7.93625 70.761 7.64525 69.8166 7.36386L69.531 8.32222ZM75.1718 10.1141C76.1009 10.4279 77.0308 10.7514 77.9612 11.0847L78.2985 10.1433C77.3623 9.80788 76.4266 9.4824 75.4918 9.16667L75.1718 10.1141ZM80.7424 12.1105C81.6604 12.4589 82.5787 12.8172 83.4966 13.1854L83.869 12.2573C82.9451 11.8867 82.0211 11.5262 81.0971 11.1756L80.7424 12.1105ZM86.2347 14.3142C87.1398 14.6975 88.0443 15.0908 88.948 15.4942L89.3557 14.5811C88.446 14.175 87.5356 13.7792 86.6246 13.3934L86.2347 14.3142ZM91.6385 16.727C92.5286 17.1454 93.4175 17.5739 94.305 18.0127L94.7482 17.1163C93.8548 16.6745 92.9599 16.2432 92.0639 15.822L91.6385 16.727ZM96.9431 19.35C97.8163 19.8036 98.6876 20.2675 99.557 20.7418L100.036 19.8639C99.1606 19.3864 98.2832 18.9193 97.4042 18.4626L96.9431 19.35ZM102.138 22.184C102.992 22.6728 103.844 23.1719 104.693 23.6816L105.208 22.8241C104.352 22.3109 103.495 21.8083 102.635 21.316L102.138 22.184ZM107.211 25.2286C108.045 25.7524 108.875 26.2866 109.702 26.8314L110.252 25.9962C109.419 25.4475 108.583 24.9095 107.744 24.382L107.211 25.2286ZM112.153 28.4826C112.963 29.041 113.77 29.6098 114.573 30.1893L115.158 29.3782C114.349 28.7946 113.537 28.2216 112.721 27.6592L112.153 28.4826ZM116.952 31.9436C117.737 32.5359 118.518 33.1387 119.296 33.7522L119.915 32.9671C119.132 32.3491 118.345 31.7419 117.554 31.1453L116.952 31.9436ZM121.597 35.6081C122.355 36.2334 123.109 36.8692 123.859 37.5157L124.512 36.7582C123.757 36.107 122.997 35.4665 122.233 34.8366L121.597 35.6081ZM126.078 39.4712C126.808 40.1284 127.533 40.796 128.253 41.4742L128.939 40.746C128.213 40.0628 127.482 39.3903 126.748 38.7282L126.078 39.4712ZM130.387 43.5271C131.086 44.2146 131.781 44.9125 132.47 45.6209L133.187 44.9234C132.492 44.2098 131.793 43.5067 131.088 42.8141L130.387 43.5271ZM134.516 47.7687C135.183 48.4849 135.845 49.2112 136.502 49.948L137.248 49.2824C136.586 48.5402 135.919 47.8085 135.247 47.0871L134.516 47.7687ZM138.456 52.1883C139.09 52.931 139.719 53.6839 140.342 54.4469L141.117 53.8143C140.489 53.0456 139.855 52.2873 139.217 51.5392L138.456 52.1883ZM142.196 56.7669C142.798 57.5374 143.395 58.3179 143.987 59.1085L144.787 58.5095C144.192 57.7132 143.591 56.9271 142.984 56.1511L142.196 56.7669ZM145.736 61.4997C146.025 61.9033 146.312 62.3094 146.598 62.718L147.417 62.1448C147.129 61.7333 146.84 61.3243 146.549 60.9178L145.736 61.4997Z" fill="black"/>
</svg>
