<svg width="37" height="29" viewBox="0 0 37 29" fill="none" xmlns="http://www.w3.org/2000/svg">
<path opacity="0.25" d="M10.6156 15.6953C11.5775 16.2497 12.3333 17.0466 12.883 18.086C13.5014 19.0562 13.8106 20.1649 13.8106 21.4122C13.8106 23.5603 13.0891 25.362 11.6462 26.8172C10.2721 28.2724 8.58867 29 6.5961 29C4.74095 29 3.16063 28.3763 1.85515 27.129C0.618384 25.8817 0 24.2879 0 22.3477C0 21.3082 0.171773 20.3381 0.51532 19.4373C0.858867 18.4671 1.47725 17.1852 2.37047 15.5914L11.0279 0H17.5209L10.6156 15.6953ZM30.0947 15.6953C31.0566 16.2497 31.8124 17.0466 32.3621 18.086C32.9805 19.0562 33.2897 20.1649 33.2897 21.4122C33.2897 23.5603 32.5682 25.362 31.1253 26.8172C29.7512 28.2724 28.0678 29 26.0752 29C24.2201 29 22.6397 28.3763 21.3343 27.129C20.0975 25.8817 19.4791 24.2879 19.4791 22.3477C19.4791 21.3082 19.6509 20.3381 19.9944 19.4373C20.338 18.4671 20.9564 17.1852 21.8496 15.5914L30.507 0H37L30.0947 15.6953Z" fill="#141414"/>
</svg>
